<svg xmlns="http://www.w3.org/2000/svg" width="318" height="174" style="shape-rendering:geometricPrecision;text-rendering:geometricPrecision;image-rendering:optimizeQuality;fill-rule:evenodd;clip-rule:evenodd"><path style="opacity:.004" fill="#dadddc" d="M197.5 7.5c-.667 0-1 .333-1 1-1.385-1.074-2.551-2.407-3.5-4-.708.88-1.542 1.547-2.5 2-.082-1.752.751-2.752 2.5-3 1.98.815 3.48 2.148 4.5 4Z"/><path style="opacity:.039" fill="#ebedec" d="M190.5 6.5c-.296 1.903-.963 3.57-2 5-1.397-2.322-.73-3.99 2-5Z"/><path style="opacity:.007" fill="#eceeec" d="M197.5 7.5c2.12.95 3.786 2.45 5 4.5-2.177 1.186-3.177 3.02-3 5.5-2.227-.9-3.227-2.567-3-5a8.435 8.435 0 0 0 4-.5c-1.593-.949-2.926-2.115-4-3.5.667 0 1-.333 1-1Z"/><path style="opacity:.004" fill="#fdfefd" d="M148.5 18.5c.397-1.025 1.063-1.192 2-.5a2.427 2.427 0 0 1-2 .5Z"/><path style="opacity:.004" fill="#fefefe" d="M161.5 18.5c.397-1.025 1.063-1.192 2-.5a2.427 2.427 0 0 1-2 .5Z"/><path style="opacity:.004" fill="#fdfefd" d="M200.5 17.5c1.333.667 1.333.667 0 0Z"/><path style="opacity:.009" fill="#f2f3f2" d="M132.5 21.5c-1.465 1.237-3.132 2.237-5 3 .537-3.241 2.204-4.241 5-3Z"/><path style="opacity:.011" fill="#e1e3e1" d="M199.5 18.5h1c1.29 1.435 2.956 2.435 5 3a5.575 5.575 0 0 1 1 3 44.043 44.043 0 0 1-2-1 494.818 494.818 0 0 1-4 3c-1.679.215-2.679-.452-3-2 2.181.216 3.847-.617 5-2.5-2.043-.64-3.71-.14-5 1.5-.978-.311-1.645-.978-2-2 1.832-.557 3.165-1.557 4-3Z"/><path style="opacity:.541" fill="#c8cdca" d="M94.5 24.5h-2c.667-2.667 1.333-2.667 2 0Z"/><path style="opacity:.014" fill="#e8eae9" d="M127.5 24.5c-.936 1.474-2.27 2.474-4 3 .41-2.792 1.744-3.792 4-3Z"/><path style="opacity:.015" fill="#e5e8e5" d="M188.5 11.5v3h3c1.069 5.043-.597 8.877-5 11.5 1.124.25 2.124.75 3 1.5-2.418.915-4.418 2.415-6 4.5-2.381.739-4.381.239-6-1.5.667 0 1-.333 1-1 1.635 1.315 3.301 1.315 5 0-.31-1.701.19-3.368 1.5-5 6.149-3.024 6.649-6.524 1.5-10.5.566-.995 1.233-1.828 2-2.5Z"/><path style="opacity:.004" fill="#f5f6f6" d="M206.5 24.5c1.333 0 2 .667 2 2h-1c-.838-.342-1.172-1.008-1-2Z"/><path style="opacity:.007" fill="#e5e9e9" d="M154.5 19.5v2c2.077 3.997 3.41 8.33 4 13-1.868-1.174-2.868-.507-3 2a54.292 54.292 0 0 1-3-9l2 2v-3c1.333-.667 1.333-1.333 0-2-.06-.543-.393-.876-1-1-.886.825-1.219 1.825-1 3-1.238-1.714-1.905-3.714-2-6h-8c.344 4.622-.323 8.955-2 13a43.788 43.788 0 0 0-2-6v-7a19.24 19.24 0 0 0-6 1c2.224-3.433 4.891-3.767 8-1 4.118-1.666 7.952-1.332 11.5 1 .417-1.256 1.25-1.923 2.5-2Zm0 5c-1.333.667-1.333 1.333 0 2v3l-2-2v-1c-.219-1.175.114-2.175 1-3 .607.124.94.457 1 1Z"/><path style="opacity:.004" fill="#fdfefd" d="M208.5 26.5c1.333.667 1.333.667 0 0Z"/><path style="opacity:.051" fill="#eceeec" d="M91.5 26.5c-.296 1.903-.963 3.57-2 5-1.317-2.376-.65-4.043 2-5Z"/><path style="opacity:.004" fill="#fdfefd" d="M88.5 31.5c-.667-1.333-.667-1.333 0 0Z"/><path style="opacity:1" fill="#36513b" d="M196.5 8.5c1.074 1.385 2.407 2.551 4 3.5a8.435 8.435 0 0 1-4 .5c-.227 2.433.773 4.1 3 5v1c-.835 1.443-2.168 2.443-4 3 .355 1.022 1.022 1.689 2 2v1c.321 1.548 1.321 2.215 3 2-6.127 3.025-6.127 4.025 0 3-.095 2.286-.762 4.286-2 6-.321-1.548-1.321-2.215-3-2v3l-2 1c.304 2.296 1.304 2.629 3 1 0 2 1 3 3 3-2.365 2.026-5.031 3.693-8 5a43.285 43.285 0 0 0 9 2c.427 3.288-.24 6.288-2 9l1.5 1c2.448-.2 4.281-1.2 5.5-3l2 2c0 .667.333 1 1 1v2c.16 1.653.826 2.986 2 4v1c2.736 6.586 5.736 6.586 9 0 1.793-1.926 2.793-4.26 3-7-1.599.268-2.932-.066-4-1v-1c2.039-1.411 3.039-3.411 3-6-1.478.262-2.811-.071-4-1 4.092-1.758 6.759-4.758 8-9a31.12 31.12 0 0 0 2 2c.296 1.903.963 3.57 2 5a35.247 35.247 0 0 0-1.5 13 25.501 25.501 0 0 0 4.5 4c-2.663 2.016-2.33 3.35 1 4 .79 1.294 1.79 2.46 3 3.5a71.498 71.498 0 0 0-11.5.5c-1.016 3.126-.183 5.46 2.5 7l2 2c-1.05.405-1.05 1.071 0 2l3 1c5.354-2.207 9.687-1.04 13 3.5-3.244 2.544-6.744 2.71-10.5.5-4.707 1.59-4.54 2.756.5 3.5l-1.5 1.5c-2.064-1.091-4.231-1.258-6.5-.5l1 3c2.595.226 5.095.726 7.5 1.5.495 1.973.662 3.973.5 6-4.983.088-9.649-1.079-14-3.5a30.04 30.04 0 0 0-7.5-5.5 567.788 567.788 0 0 1-11.5 2h-5c-2.589-.039-4.589.961-6 3h-3c-.542-3.412-1.875-6.412-4-9-.432-1.21-1.099-2.21-2-3-.61-1.934-1.61-3.6-3-5-.975-2.295-2.308-4.295-4-6-2.248-3.754-5.081-7.088-8.5-10-1.979-4.288-3.479-8.622-4.5-13 .09-2.652-.576-4.986-2-7v-2c-.629-2.897-1.629-5.564-3-8v-2c-.59-4.67-1.923-9.003-4-13v-2c2-1.333 4-1.333 6 0a126.5 126.5 0 0 1 12 4c.432 1.21 1.099 2.21 2 3 .238 1.904 1.238 3.238 3 4 1.619 1.739 3.619 2.239 6 1.5 1.582-2.085 3.582-3.585 6-4.5a6.807 6.807 0 0 0-3-1.5c4.403-2.623 6.069-6.457 5-11.5h-3v-3c1.037-1.43 1.704-3.097 2-5 .958-.453 1.792-1.12 2.5-2 .949 1.593 2.115 2.926 3.5 4Zm14 35h1v1c-.667 0-1 .333-1 1-1.333-.667-1.333-1.333 0-2Z"/><path style="opacity:.01" fill="#e6e9e6" d="M174.5 26.5c1.73.526 3.064 1.526 4 3-.667 0-1 .333-1 1-1.762-.762-2.762-2.096-3-4Z"/><path style="opacity:.004" fill="#f0f2f0" d="M172.5 23.5c2.507.132 3.174 1.132 2 3-.901-.79-1.568-1.79-2-3Z"/><path style="opacity:.004" fill="#e5e8e6" d="M172.5 23.5a126.5 126.5 0 0 0-12-4c3.27-1.006 6.604-.839 10 .5 1.473.71 2.14 1.876 2 3.5Z"/><path style="opacity:.008" fill="#eaedea" d="M193.5 37.5c-2.816-.044-5.149-1.044-7-3a3.647 3.647 0 0 1 1-1.5 18.437 18.437 0 0 1 6-.5v5Z"/><path style="opacity:.014" fill="#e1e3e2" d="M207.5 27.5h1c2.159 1.121 3.493 2.955 4 5.5-.689 2.054-1.689 3.054-3 3 1.695 1.046 2.028 2.213 1 3.5-1.75-1.16-2.75-2.826-3-5 1.333-.333 1.333-.667 0-1 .763-.768 1.763-1.268 3-1.5-1.641-1.129-2.641-2.629-3-4.5Z"/><path style="opacity:.007" fill="#e6e9e6" d="M95.5 26.5c2.736 2.054 5.069 4.554 7 7.5-3.003 2.178-3.336 5.011-1 8.5-1.017 2.528-2.184 2.528-3.5 0a2.428 2.428 0 0 0-.5 2c-.904-.709-1.237-1.709-1-3h3c-.085-2.429-1.085-4.429-3-6 .124-.607.457-.94 1-1 .763-.768 1.763-1.268 3-1.5-3.034-1.191-4.7-3.358-5-6.5Z"/><path style="opacity:.51" fill="#9eab9f" d="M198.5 35.5c-.709.904-1.709 1.237-3 1v-3c1.679-.215 2.679.452 3 2Z"/><path style="opacity:.224" fill="#dbdedb" d="M88.5 31.5h1c-.135 2.054.532 3.72 2 5-.667 0-1 .333-1 1a12.649 12.649 0 0 1-4-2.5c1.323-.816 1.99-1.983 2-3.5Z"/><path style="opacity:1" fill="#38523d" d="M138.5 27.5v1c-1.677 7.096-2.343 14.43-2 22v1c-.09 2.652.576 4.986 2 7 0 .667.333 1 1 1v2c.221 2.567.888 4.9 2 7v2c-.237 1.291.096 2.291 1 3v1c.308 3.86.975 7.526 2 11v2a200.791 200.791 0 0 0-4.5-10 153.716 153.716 0 0 0-3-13c-1.333-1.333-2.667-1.333-4 0-.589-2.363-2.089-3.363-4.5-3 .219 1.175-.114 2.175-1 3-.915-2.48-2.415-3.147-4.5-2-1.983-2.497-1.15-3.664 2.5-3.5a8.435 8.435 0 0 0-4-.5c-.513-2.949-.513-5.782 0-8.5-1.176-1.914-2.176-1.748-3 .5a3.646 3.646 0 0 1-1.5-1c-1.144 3.425-1.978 6.591-2.5 9.5a40.708 40.708 0 0 0-9.5 2.5c-4.748-1.135-9.581-1.301-14.5-.5-.556.383-.89.883-1 1.5-2.132-.054-3.465-1.054-4-3 .65.304 1.317.637 2 1 1.679-1.605 3.679-2.271 6-2 .768-.763 1.268-1.763 1.5-3 .278.916.778 1.583 1.5 2 3.667 1.333 7.333 1.333 11 0 1.599.268 2.932-.066 4-1 1.508-1.681 2.508-3.681 3-6v-1c2.405-4.256 3.905-8.923 4.5-14a47.868 47.868 0 0 0 4.5-8c1.73-.526 3.064-1.526 4-3 1.868-.763 3.535-1.763 5-3a19.24 19.24 0 0 1 6-1v7Z"/><path style="opacity:.012" fill="#f2f5f5" d="M146.5 35.5h2a40.58 40.58 0 0 0 2 14c-1.469-2.6-2.469-2.267-3 1-.667 0-1-.333-1-1v-5c1.333-.333 1.333-.667 0-1v-8Z"/><path style="opacity:.996" fill="#1a2e20" d="M206.5 24.5c-.172.992.162 1.658 1 2v1c.359 1.871 1.359 3.371 3 4.5-1.237.232-2.237.732-3 1.5v1c.25 2.174 1.25 3.84 3 5 .333 1 1 1.667 2 2 2.758 1.467 2.425 2.133-1 2h-1c-1.068-.934-2.401-1.268-4-1 .333 3.667 2.333 5.667 6 6-.291 1.15-1.124 1.816-2.5 2a29.513 29.513 0 0 0-6.5-1c-.271 1.88.396 3.213 2 4v2c-1.219 1.8-3.052 2.8-5.5 3l-1.5-1c1.76-2.712 2.427-5.712 2-9a43.285 43.285 0 0 1-9-2c2.969-1.307 5.635-2.974 8-5 .734-1.208 1.067-2.541 1-4-1.459-.067-2.792.266-4 1-1.696 1.629-2.696 1.296-3-1l2-1c1.291.237 2.291-.096 3-1 1.238-1.714 1.905-3.714 2-6-6.127 1.025-6.127.025 0-3a494.818 494.818 0 0 0 4-3c.683.363 1.35.696 2 1Z"/><path style="opacity:.004" fill="#fdfffd" d="M101.5 39.5c1.333.667 1.333.667 0 0Z"/><path style="opacity:.055" fill="#c5cec8" d="M199.5 41.5c-2 0-3-1-3-3 1.208-.734 2.541-1.067 4-1 .067 1.459-.266 2.792-1 4Z"/><path style="opacity:.004" fill="#f8f8f8" d="M210.5 39.5c1.291-.237 2.291.096 3 1-.667 0-1 .333-1 1-1-.333-1.667-1-2-2Z"/><path style="opacity:.994" fill="#3c5441" d="M92.5 24.5h2c.838.342 1.172 1.008 1 2 .3 3.142 1.966 5.309 5 6.5-1.237.232-2.237.732-3 1.5-.543.06-.876.393-1 1 1.915 1.571 2.915 3.571 3 6h-3c-.237 1.291.096 2.291 1 3 .25 2.174 1.25 3.84 3 5 .359 1.871 1.359 3.371 3 4.5a24.94 24.94 0 0 1-7 .5c-3.436-1.282-6.77-1.282-10 0-1.406.473-2.073 1.473-2 3-1.037-1.43-1.704-3.097-2-5a239.564 239.564 0 0 0 6-3 4.452 4.452 0 0 0-2-1.5l4.5-4.5c.496-1.973.662-3.973.5-6v-1c-1.468-1.28-2.135-2.946-2-5 1.037-1.43 1.704-3.097 2-5-.172-.992.162-1.658 1-2Z"/><path style="opacity:.059" fill="#f3f4f4" d="M213.5 40.5c3.941 2.79 3.274 4.123-2 4v-1c3.425.133 3.758-.533 1-2 .667 0 1-.333 1-1Z"/><path style="opacity:.017" fill="#eaeceb" d="M227.5 42.5a31.12 31.12 0 0 1-2-2c-1.241 4.242-3.908 7.242-8 9 1.189.929 2.522 1.262 4 1 .039 2.589-.961 4.589-3 6 1.718-3.231.718-5.231-3-6 1-2.333 2.667-4 5-5a21.66 21.66 0 0 1 4-6.5c3.469-.706 4.469.46 3 3.5Z"/><path style="opacity:.008" fill="#eaedeb" d="M123.5 27.5a47.868 47.868 0 0 1-4.5 8c-.595 5.077-2.095 9.744-4.5 14-.784-2.515-.117-4.849 2-7-.334-1.835-.334-3.502 0-5a10.939 10.939 0 0 1 3-4.5l-1-1c1.583-1.758 3.25-3.258 5-4.5Z"/><path style="opacity:.013" fill="#dee1de" d="M210.5 43.5c-1.333.667-1.333 1.333 0 2l2 3c-3.667-.333-5.667-2.333-6-6 1.599-.268 2.932.066 4 1Z"/><path style="opacity:.014" fill="#eff0ef" d="M227.5 42.5c2.159 1.285 2.826 2.952 2 5-1.037-1.43-1.704-3.097-2-5Z"/><path style="opacity:.007" fill="#edf0ef" d="M158.5 36.5c1.371 2.436 2.371 5.103 3 8h-1c-.254 1.9.08 2.567 1 2 1.424 2.014 2.09 4.348 2 7-1.174 1.014-1.84 2.347-2 4-1.493-3.083-2.493-6.416-3-10-1.366-3.46-2.366-7.127-3-11 1.238-.427 2.238-.427 3 0Zm2 8c-.863.963-1.53.963-2 0 .757-1.273 1.423-1.273 2 0Z"/><path style="opacity:.055" fill="#eceeed" d="M97.5 44.5c2.227.9 3.227 2.567 3 5-1.75-1.16-2.75-2.826-3-5Z"/><path style="opacity:.008" fill="#e4e7e4" d="M90.5 37.5h1a18.436 18.436 0 0 1-.5 6L86.5 48a4.452 4.452 0 0 1 2 1.5 239.564 239.564 0 0 1-6 3c-1-1.333-2-1.333-3 0-1.038-1.608-.371-2.608 2-3l2 1a31.572 31.572 0 0 1 5.5-8c1.009-1.525 1.509-3.192 1.5-5Z"/><path style="opacity:.009" fill="#e8eeed" d="M150.5 49.5c1.238 1.714 1.905 3.714 2 6l-2 1c-.056-3.017-.39-3.35-1-1-1.037-1.43-1.704-3.097-2-5 .996-.086 1.829.248 2.5 1a2.429 2.429 0 0 0 .5-2Z"/><path style="opacity:.149" fill="#e8e9e8" d="M212.5 48.5c2.427.779 2.427 1.946 0 3.5-1.735.651-3.402.485-5-.5-1.022.355-1.689 1.022-2 2-1.604-.787-2.271-2.12-2-4 2.196.09 4.363.423 6.5 1 1.376-.184 2.209-.85 2.5-2Z"/><path style="opacity:.998" fill="#6d7c6e" d="M86.5 54.5c3.23-1.282 6.564-1.282 10 0v3c-.722-.417-1.222-1.084-1.5-2-.232 1.237-.732 2.237-1.5 3 .268-1.599-.066-2.932-1-4h-6Z"/><path style="opacity:.008" fill="#f0f2f1" d="M114.5 50.5c-.492 2.319-1.492 4.319-3 6 0-.667-.333-1-1-1a21.62 21.62 0 0 1 4-5Z"/><path style="opacity:.376" fill="#d3dad5" d="M136.5 51.5h2v7c-1.424-2.014-2.09-4.348-2-7Z"/><path style="opacity:.004" fill="#e4e6e5" d="M229.5 47.5c.719 1.591 1.719 3.091 3 4.5-3.445 2.503-3.945 5.67-1.5 9.5 3.652 1.26 4.152 3.094 1.5 5.5.556.383.889.883 1 1.5-3.33-.65-3.663-1.984-1-4a25.501 25.501 0 0 1-4.5-4 35.247 35.247 0 0 1 1.5-13Z"/><path style="opacity:.009" fill="#e7e9e8" d="M100.5 49.5c3.629 1.47 5.296 3.97 5 7.5a2.427 2.427 0 0 0 2 .5c-3.667 1.333-7.333 1.333-11 0v-3a24.94 24.94 0 0 0 7-.5c-1.641-1.129-2.641-2.629-3-4.5Z"/><path style="opacity:.007" fill="#eeefee" d="M86.5 54.5h2v1c1.599.268 2.932-.066 4-1 .934 1.068 1.268 2.401 1 4-2.321-.271-4.321.395-6 2a44.358 44.358 0 0 0-2-1l-1-2c-.073-1.527.594-2.527 2-3Zm2 1c-.14 1.837-.806 2.17-2 1 .457-.797 1.124-1.13 2-1Z"/><path style="opacity:.047" fill="#eaeceb" d="M205.5 53.5c2.262.845 2.929 2.178 2 4l-2-2v-2Z"/><path style="opacity:.102" fill="#e9ebe9" d="M110.5 55.5c.667 0 1 .333 1 1-1.068.934-2.401 1.268-4 1 .473-1.406 1.473-2.073 3-2Z"/><path style="opacity:.008" fill="#e2e9e9" d="M152.5 55.5c1.788 3.048 3.288 6.382 4.5 10l.5 6.5c-.033 2.61-.7 4.777-2 6.5v-4c1.007-2.643 1.007-2.977 0-1a125.359 125.359 0 0 0-3-9c-1.574-1.602-2.241-3.602-2-6 1.406-.473 2.073-1.473 2-3Zm2 9c1.273.577 1.273 1.243 0 2-.963-.47-.963-1.136 0-2Z"/><path style="opacity:.004" fill="#fdfefd" d="M208.5 57.5c1.333.667 1.333.667 0 0Z"/><path style="opacity:.169" fill="#dbdfdb" d="M218.5 57.5c1.068.934 2.401 1.268 4 1-.207 2.74-1.207 5.074-3 7-1.616-1.916-1.282-3.416 1-4.5l-3-2.5c.124-.607.457-.94 1-1Z"/><path style="opacity:1" fill="#334f38" d="M144.5 87.5c.233 3.042 1.233 5.708 3 8 .16 1.653.826 2.986 2 4v1a5.576 5.576 0 0 0 1 3 73.133 73.133 0 0 1-17 1h-10a128.748 128.748 0 0 0-11 2 2912.294 2912.294 0 0 1-37.5 5c-2.595-1.646-5.428-2.313-8.5-2v4a18.452 18.452 0 0 1-6-.5c1.227-2.27 2.894-4.103 5-5.5a26.722 26.722 0 0 0-7-1.5c2.193-2.025 3.193-4.525 3-7.5h4c-.204-1.89.463-3.39 2-4.5-.752-.67-1.086-1.504-1-2.5a20.677 20.677 0 0 1 1-5c1.174-1.014 1.84-2.347 2-4 2.18.603 4.346 1.27 6.5 2 .85 4.035.35 7.869-1.5 11.5 3.124-.39 6.124-.557 9-.5-2.7-2.398-4.033-5.398-4-9 2.85.136 5.683.47 8.5 1 5.722-1.066 5.555-2.566-.5-4.5-2.773-1.605-3.44-3.772-2-6.5 2.437 2.076 5.103 2.409 8 1-3.517-3.36-6.517-7.193-9-11.5l1-1.5c3.564 1.853 4.897 1.186 4-2 .11-.617.444-1.117 1-1.5 4.919-.801 9.752-.635 14.5.5a40.708 40.708 0 0 1 9.5-2.5c.522-2.909 1.356-6.075 2.5-9.5.414.457.914.79 1.5 1 .824-2.248 1.824-2.414 3-.5-.513 2.718-.513 5.551 0 8.5a8.435 8.435 0 0 1 4 .5c-3.65-.164-4.483 1.003-2.5 3.5 2.085-1.147 3.585-.48 4.5 2 .886-.825 1.219-1.825 1-3 2.411-.363 3.911.637 4.5 3 1.333-1.333 2.667-1.333 4 0a153.716 153.716 0 0 1 3 13 200.791 200.791 0 0 1 4.5 10Z"/><path style="opacity:.007" fill="#eceeed" d="M208.5 60.5c2.836.337 3.502 1.67 2 4-1.174-1.014-1.84-2.347-2-4Z"/><path style="opacity:.012" fill="#e0e2e0" d="M77.5 54.5a38.44 38.44 0 0 1-5 5.5c.948.483 1.948.65 3 .5.802-1.385 1.469-1.218 2 .5-.398 1.981-1.398 3.481-3 4.5-.086-.996.248-1.83 1-2.5a18.436 18.436 0 0 0-6-.5c1.317-3.983 3.983-6.65 8-8Z"/><path style="opacity:.008" fill="#e9edec" d="M138.5 28.5c-.423 2.281.244 3.948 2 5-.56 5.518-.56 10.851 0 16a162.642 162.642 0 0 1 6 27c-1.924.21-2.257.877-1 2 0 .667.333 1 1 1-1.278 1.29-1.945 3.29-2 6-1.025-3.474-1.692-7.14-2-11 1.333-.333 1.333-.667 0-1-.904-.709-1.237-1.709-1-3 1.234-1.548 1.234-2.215 0-2-1.112-2.1-1.779-4.433-2-7 1.148 1.395 2.148 1.228 3-.5-.744-1.039-1.744-1.539-3-1.5a58.883 58.883 0 0 1 2-3c-.628-1.945-1.628-3.612-3-5-.342-.838-1.008-1.172-2-1-.343-7.57.323-14.904 2-22Z"/><path style="opacity:.01" fill="#e6ebea" d="M163.5 53.5c1.021 4.378 2.521 8.712 4.5 13 3.419 2.912 6.252 6.246 8.5 10-.667 0-1 .333-1 1-.667 0-1 .333-1 1a310.678 310.678 0 0 1-3-4 44.374 44.374 0 0 1-8-10c-1.424-2.014-2.09-4.348-2-7 1.604-.787 2.271-2.12 2-4Z"/><path style="opacity:.998" fill="#306564" d="M152.5 26.5v1a54.292 54.292 0 0 0 3 9c.634 3.873 1.634 7.54 3 11 .507 3.584 1.507 6.917 3 10-.09 2.652.576 4.986 2 7a44.374 44.374 0 0 0 8 10 310.678 310.678 0 0 0 3 4 310.678 310.678 0 0 0 3 4c-.172.992.162 1.658 1 2a1014.83 1014.83 0 0 0 5 10c-.271 1.88.396 3.213 2 4v1a29.417 29.417 0 0 1 2 7c2.589.039 4.589-.961 6-3 3.461-1.591 7.128-2.258 11-2h3c1.802.958 3.802 1.625 6 2 .342.838 1.008 1.172 2 1 .418.722 1.084 1.222 2 1.5l-10 1c-1.566.608-2.9 1.442-4 2.5-1.653.16-2.986.826-4 2-1.21.432-2.21 1.099-3 2a124.861 124.861 0 0 1-13 4 81.23 81.23 0 0 0-11 3 172.433 172.433 0 0 1-33 0h-7c-2.405-1.268-5.072-1.935-8-2h-1c-.709-.904-1.709-1.237-3-1h-2c-8-1.333-16-1.333-24 0h-4c-1.915.284-3.581-.049-5-1 2.235.295 4.235-.039 6-1h1a338.868 338.868 0 0 1 13-3h2c3.979-.242 7.646-1.242 11-3a184.09 184.09 0 0 1 23-1c4.134.985 8.468 1.318 13 1-.185 1.696-1.019 3.029-2.5 4-10.322-.507-20.822-1.007-31.5-1.5a23.966 23.966 0 0 0 9 3c1.478 2.057 3.478 3.39 6 4a212.04 212.04 0 0 0 34-.5c-.051-4.53-.384-9.196-1-14h1v1c.321 4.288 1.987 7.955 5 11 1.306-3.48 1.306-6.813 0-10-.221-2.567-.888-4.901-2-7-.629-2.897-1.629-5.564-3-8-.492-2.319-1.492-4.319-3-6-1.169-3.844-3.502-6.844-7-9l-1 1a55.627 55.627 0 0 0 4 8c2.198-.091 2.531.576 1 2 .477 2.938 1.477 5.604 3 8l2 8c-1.359-.507-2.359-1.507-3-3l-2 1c-.368-4.467-1.868-8.467-4.5-12l-1 1c-.186-4.18-1.019-8.18-2.5-12 1.3-1.723 1.967-3.89 2-6.5l-.5-6.5c-1.212-3.618-2.712-6.952-4.5-10-.095-2.286-.762-4.286-2-6a40.58 40.58 0 0 1-2-14 40.911 40.911 0 0 0-.5-9 3.646 3.646 0 0 0-1.5-1c-1.319 7.49-1.319 14.823 0 22v2h-6c-.56-5.149-.56-10.482 0-16 1.677-4.045 2.344-8.378 2-13h8c.095 2.286.762 4.286 2 6Zm10 56 4 3-1 2h-2c1.531-1.424 1.198-2.091-1-2v-3Zm3 5a310.678 310.678 0 0 1 3 4c-.617.11-1.117.444-1.5 1a6.977 6.977 0 0 0-2.5-3.5c.556-.383.889-.883 1-1.5Zm3 6v1c-.667 0-1 .333-1 1h-1c0-1.333.667-2 2-2Zm0 1c1.237 1.465 2.237 3.132 3 5-.617.11-1.117.444-1.5 1l-2.5-5c.667 0 1-.333 1-1Zm4 14c1.725.343 2.225 1.343 1.5 3-1.039-.744-1.539-1.744-1.5-3Z"/><path style="opacity:.223" fill="#c1d0cf" d="M148.5 35.5h-1c-.333-9.333-.667-9.333-1 0v12c-1.319-7.177-1.319-14.51 0-22 .586.21 1.086.543 1.5 1 .498 2.982.665 5.982.5 9Z"/><path style="opacity:.475" fill="#d3d5d4" d="M53.5 65.5a10.174 10.174 0 0 0-3 3c-1.79-2.564-1.124-4.231 2-5 .797.457 1.13 1.124 1 2Z"/><path style="opacity:.004" fill="#fdfefd" d="M211.5 64.5c1.333.667 1.333.667 0 0Z"/><path style="opacity:.007" fill="#e9eae9" d="M74.5 65.5c.073 1.527-.594 2.527-2 3 0-.667-.333-1-1-1 .473-1.406 1.473-2.073 3-2Z"/><path style="opacity:.01" fill="#f5f6f5" d="M53.5 65.5c2.947 1.223 3.947 3.223 3 6-1.37-1.75-2.37-3.75-3-6Z"/><path style="opacity:.013" fill="#e4e7e4" d="M210.5 65.5h1c.691 1.522 1.858 2.522 3.5 3 1.123-1.6 2.623-2.6 4.5-3-3.264 6.586-6.264 6.586-9 0Z"/><path style="opacity:.047" fill="#eaebea" d="M71.5 67.5c.667 0 1 .333 1 1-.342.838-1.008 1.172-2 1-.172-.992.162-1.658 1-2Z"/><path style="opacity:.106" fill="#ebedec" d="M50.5 68.5c.215 1.679-.452 2.679-2 3-.073-1.527.594-2.527 2-3Z"/><path style="opacity:.009" fill="#dddfdd" d="M70.5 69.5c-.453.958-1.12 1.792-2 2.5l1 .5c2.118-1.446 4.451-2.113 7-2 .237 1.291-.096 2.291-1 3-.21-1.924-.877-2.257-2-1-4.197 3.474-6.197 2.474-6-3h3Zm3 3c1.123-1.257 1.79-.924 2 1l-2-1Z"/><path style="opacity:.01" fill="#e6e7e6" d="m73.5 72.5 2 1c.073 1.527-.594 2.527-2 3v-4Z"/><path style="opacity:.011" fill="#e1e4e2" d="M227.5 79.5c-2.683-1.54-3.516-3.874-2.5-7a71.498 71.498 0 0 1 11.5-.5 14.696 14.696 0 0 1-3-3.5c.617-.11 1.117-.444 1.5-1a8.902 8.902 0 0 0 3 4c.045 4.324-1.621 4.99-5 2a44.204 44.204 0 0 1-6.5.5 3.647 3.647 0 0 0-1 1.5c1.13 1.122 1.797 2.456 2 4Z"/><path style="opacity:.514" fill="#a7baac" d="M219.5 72.5c1.495-.085 2.495.582 3 2-1.896 1.14-2.896.473-3-2Z"/><path style="opacity:.009" fill="#ebedec" d="M73.5 76.5c-.762 1.762-2.096 2.762-4 3 .451-2.807 1.785-3.807 4-3Z"/><path style="opacity:1" fill="#182c1d" d="M82.5 52.5c.296 1.903.963 3.57 2 5l1 2c.535 1.946 1.868 2.946 4 3 .897 3.186-.436 3.853-4 2l-1 1.5c2.483 4.307 5.483 8.14 9 11.5-2.897 1.409-5.563 1.076-8-1-1.44 2.728-.773 4.895 2 6.5 6.055 1.934 6.222 3.434.5 4.5a61.795 61.795 0 0 0-8.5-1c-.033 3.602 1.3 6.602 4 9-2.876-.057-5.876.11-9 .5 1.85-3.631 2.35-7.465 1.5-11.5-2.154-.73-4.32-1.397-6.5-2-.418-.722-1.084-1.222-2-1.5.916-.278 1.582-.778 2-1.5 1.904-.238 3.238-1.238 4-3 1.406-.473 2.073-1.473 2-3 .904-.709 1.237-1.709 1-3-2.549-.113-4.882.554-7 2l-1-.5c.88-.708 1.547-1.542 2-2.5.992.172 1.658-.162 2-1 1.406-.473 2.073-1.473 2-3 1.602-1.019 2.602-2.519 3-4.5-.531-1.718-1.198-1.885-2-.5a4.932 4.932 0 0 1-3-.5 38.44 38.44 0 0 0 5-5.5c.333-1 1-1.667 2-2 1-1.333 2-1.333 3 0Z"/><path style="opacity:.01" fill="#eef1f0" d="M176.5 76.5c1.692 1.705 3.025 3.705 4 6-.667 0-1 .333-1 1-.667 0-1 .333-1 1-.838-.342-1.172-1.008-1-2a310.678 310.678 0 0 1-3-4c.667 0 1-.333 1-1 .667 0 1-.333 1-1Z"/><path style="opacity:.007" fill="#e6ecec" d="m166.5 85.5-4-3v3a55.627 55.627 0 0 1-4-8l1-1c3.498 2.156 5.831 5.156 7 9Z"/><path style="opacity:.061" fill="#eff0ef" d="M243.5 81.5h-14l-2-2c1.629-1.56 2.796-1.227 3.5 1 3.744-1.126 7.577-1.293 11.5-.5.556.383.889.883 1 1.5Z"/><path style="opacity:.529" fill="#c9ccca" d="M69.5 79.5c-.418.722-1.084 1.222-2 1.5.916.278 1.582.778 2 1.5-.16 1.653-.826 2.986-2 4-1.291-.973-1.291-1.973 0-3-3.777-1.496-3.777-3.163 0-5 .683.363 1.35.696 2 1Z"/><path style="opacity:.004" fill="#fdfefd" d="M43.5 82.5c1.333.667 1.333.667 0 0Z"/><path style="opacity:.055" fill="#e9ebe9" d="M249.5 83.5c-2.398.24-4.398-.426-6-2 2.811-1.59 4.811-.923 6 2Z"/><path style="opacity:.007" fill="#e7eae9" d="M180.5 82.5c1.39 1.4 2.39 3.066 3 5 .901.79 1.568 1.79 2 3 2.125 2.588 3.458 5.588 4 9h3c-.343 1.725-1.343 2.225-3 1.5-.553-1.878-1.553-3.378-3-4.5.172-.992-.162-1.658-1-2-1.048-2.433-1.714-2.433-2 0a1014.83 1014.83 0 0 1-5-10c.667 0 1-.333 1-1 .667 0 1-.333 1-1Zm5 12h-2c.286-2.433.952-2.433 2 0Z"/><path style="opacity:.007" fill="#e1e4e1" d="M48.5 71.5c-.453.958-1.12 1.792-2 2.5 1.078.674 1.745 1.674 2 3a29.313 29.313 0 0 0-2 6.5h3c.38 2.198-.287 3.865-2 5a42.819 42.819 0 0 1-3-7.5c2.544-1.775 2.544-3.608 0-5.5.465-2.308 1.799-3.642 4-4Z"/><path style="opacity:1" fill="#286464" d="M140.5 49.5h6c0 .667.333 1 1 1 .296 1.903.963 3.57 2 5 0 .667.333 1 1 1v2c-.241 2.398.426 4.398 2 6a125.359 125.359 0 0 1 3 9v5c1.481 3.82 2.314 7.82 2.5 12l1-1c2.632 3.533 4.132 7.533 4.5 12l2-1c.641 1.493 1.641 2.493 3 3v1c.616 4.804.949 9.47 1 14a212.04 212.04 0 0 1-34 .5c-2.522-.61-4.522-1.943-6-4a23.966 23.966 0 0 1-9-3c10.678.493 21.178.993 31.5 1.5 1.481-.971 2.315-2.304 2.5-4 2.019-1.038 2.353-2.372 1-4-.247-3.354-1.247-6.354-3-9-.16-1.653-.826-2.986-2-4a53.681 53.681 0 0 1-2.5-14c-.383-.556-.883-.89-1.5-1v-1a162.642 162.642 0 0 0-6-27Z"/><path style="opacity:.122" fill="#e6e8e6" d="M255.5 84.5c-.667 0-1 .333-1 1-2.053.098-3.72-.569-5-2 1.38-1.207 2.547-.873 3.5 1 .977-1.274 1.811-1.274 2.5 0Z"/><path style="opacity:.051" fill="#e2e5e2" d="M56.5 71.5c1.1 1.348 2.1 2.848 3 4.5-2.074 2.302-3.408 4.968-4 8 3.867 2.04 6.033 4.872 6.5 8.5.67-.752 1.504-1.086 2.5-1-.072 1.81-.905 3.144-2.5 4-1.03-.336-1.53-1.003-1.5-2 0-.667-.333-1-1-1-.333-1.333-.667-1.333-1 0-1.192-1.066-.859-1.9 1-2.5-4.488-2.978-6.155-7.145-5-12.5h3l-1-6Z"/><path style="opacity:1" fill="#37523c" d="M229.5 81.5h14c1.602 1.574 3.602 2.24 6 2 1.28 1.431 2.947 2.098 5 2 3.015 2.174 6.349 3.841 10 5 .936 1.474 2.27 2.474 4 3h1c.473 1.406 1.473 2.073 3 2 .111.617.444 1.117 1 1.5a81.507 81.507 0 0 1 21 3 47.129 47.129 0 0 1 7 6c-.881.708-1.547 1.542-2 2.5a52.392 52.392 0 0 1-13-1c-2.646-.664-5.479-.998-8.5-1a266.45 266.45 0 0 1-25 2 72.026 72.026 0 0 1-18.5-2h-1a273.689 273.689 0 0 0-15-5h-1c-1.28-1.431-2.947-2.098-5-2-.111-.617-.444-1.117-1-1.5-2.865-.183-5.531-.683-8-1.5a567.788 567.788 0 0 0 11.5-2 30.04 30.04 0 0 1 7.5 5.5c4.351 2.421 9.017 3.588 14 3.5a18.453 18.453 0 0 0-.5-6 33.995 33.995 0 0 0-7.5-1.5l-1-3c2.269-.758 4.436-.591 6.5.5l1.5-1.5c-5.04-.744-5.207-1.91-.5-3.5 3.756 2.21 7.256 2.044 10.5-.5-3.313-4.54-7.646-5.707-13-3.5l-3-1c-1.05-.929-1.05-1.595 0-2Z"/><path style="opacity:.009" fill="#e2e5e3" d="M255.5 84.5a11.115 11.115 0 0 1 4.5 3l1-1c1.627 1.032 2.793 2.366 3.5 4-3.651-1.159-6.985-2.826-10-5 .667 0 1-.333 1-1Z"/><path style="opacity:1" fill="#152c1a" d="M129.5 63.5c1.98 1.347 3.147 3.347 3.5 6a25.501 25.501 0 0 0 4.5 4l-4 2c2.647 1.977 3.981 4.644 4 8h-3c1.257 5.102 4.257 8.935 9 11.5-3.119 1.405-6.452 1.905-10 1.5a51.569 51.569 0 0 0 1 7h-4v-8a48.3 48.3 0 0 1-14 0 40.954 40.954 0 0 1 7-5l-2-2c3.973-2.632 5.973-6.3 6-11h-3a62.489 62.489 0 0 1 5-14Z"/><path style="opacity:.149" fill="#e1e6e6" d="M166.5 85.5c1.508 1.681 2.508 3.681 3 6h-1a310.678 310.678 0 0 0-3-4l1-2Z"/><path style="opacity:.009" fill="#e4e8e7" d="M145.5 78.5c0-.667.333-1 1-1 .617.11 1.117.444 1.5 1a53.681 53.681 0 0 0 2.5 14c-1.644.31-2.644 1.31-3 3-1.767-2.292-2.767-4.958-3-8v-2c2.486-1.59 3.152-3.59 2-6-.667 0-1-.333-1-1Zm1 8c.904.709 1.237 1.709 1 3a2.427 2.427 0 0 1-2-.5c.752-.67 1.086-1.504 1-2.5Z"/><path style="opacity:.059" fill="#e9eae9" d="M47.5 88.5c.27 1.88-.396 3.213-2 4-.929-1.822-.262-3.155 2-4Z"/><path style="opacity:.886" fill="#b2bab5" d="M67.5 86.5a20.677 20.677 0 0 0-1 5h-2c-.11-.617-.444-1.117-1-1.5 1.236-1.388 2.57-2.554 4-3.5Z"/><path style="opacity:.008" fill="#d7e1e0" d="M163.5 87.5h2c-.111.617-.444 1.117-1 1.5a6.977 6.977 0 0 1 2.5 3.5c.383-.556.883-.89 1.5-1v2c-1.333 0-2 .667-2 2-1.523-2.396-2.523-5.063-3-8Z"/><path style="opacity:.157" fill="#dddfdd" d="M268.5 93.5c-1.73-.526-3.064-1.526-4-3 2.256-.792 3.59.208 4 3Z"/><path style="opacity:.094" fill="#e2e7e6" d="M169.5 91.5c1.371 2.436 2.371 5.103 3 8h-1c-.763-1.868-1.763-3.535-3-5v-1c.838-.342 1.172-1.008 1-2Z"/><path style="opacity:.01" fill="#eff0ef" d="M272.5 95.5c-1.527.073-2.527-.594-3-2-.065-.438.101-.772.5-1 1.417.578 2.25 1.578 2.5 3Z"/><path style="opacity:.004" fill="#fdfefd" d="M41.5 95.5c-.667-1.333-.667-1.333 0 0Z"/><path style="opacity:.122" fill="#d2d6d3" d="M45.5 92.5c-.667 2-2 3.333-4 4v-1c1.026-1.353 2.36-2.353 4-3Z"/><path style="opacity:.01" fill="#edeff0" d="M150.5 92.5c1.174 1.014 1.84 2.347 2 4-2.35-.695-3.017-2.028-2-4Z"/><path style="opacity:.004" fill="#d8e1e0" d="M183.5 94.5h2c-1.531 1.424-1.198 2.091 1 2v2h-1c-1.604-.787-2.271-2.12-2-4Z"/><path style="opacity:.059" fill="#e5e8e6" d="M292.5 97.5c3.856 1.35 7.023 3.684 9.5 7 .91 2.445.076 3.778-2.5 4 .453-.958 1.119-1.792 2-2.5a47.129 47.129 0 0 0-7-6 81.507 81.507 0 0 0-21-3c-.556-.383-.889-.883-1-1.5 1.238-.912 2.572-1.08 4-.5l-2 1c3.018.499 6.018.332 9-.5 3.037.09 5.703 1.09 8 3 .607-.124.94-.457 1-1Z"/><path style="opacity:.004" fill="#fdfffd" d="M292.5 97.5c-.667-1.333-.667-1.333 0 0Z"/><path style="opacity:.455" fill="#cbcecb" d="M41.5 96.5v2c-2.667-.667-2.667-1.333 0-2Z"/><path style="opacity:.035" fill="#f0f2f0" d="M147.5 95.5c2.306.875 2.973 2.208 2 4-1.174-1.014-1.84-2.347-2-4Z"/><path style="opacity:.012" fill="#ebedec" d="M198.5 96.5a85.95 85.95 0 0 0-4.5 4c-.383-.556-.883-.89-1.5-1 1.411-2.039 3.411-3.039 6-3Z"/><path style="opacity:.006" fill="#eef1f0" d="M199.5 96.5h4c2.469.817 5.135 1.317 8 1.5.556.383.889.883 1 1.5-1.333.333-1.333.667 0 1 0 .667.333 1 1 1v2c-2.198-.375-4.198-1.042-6-2a4.934 4.934 0 0 0 3-.5c-1.333-.667-1.333-1.333 0-2-1.303-.21-2.636-.043-4 .5-2.792-.26-5.125-1.26-7-3Z"/><path style="opacity:.006" fill="#edf1f1" d="M166.5 95.5h1l2.5 5c.383-.556.883-.89 1.5-1v2c-1.406.473-2.073 1.473-2 3h-1v-1l-2-8Z"/><path style="opacity:.004" fill="#fdfefd" d="M40.5 99.5c1.333.667 1.333.667 0 0Z"/><path style="opacity:.007" fill="#f2f3f2" d="M48.5 98.5c1.13 2.128 1.296 4.461.5 7a56.905 56.905 0 0 1-9.5 2c2.292-1.767 4.958-2.767 8-3 .134-1.792-.2-3.458-1-5 .992.172 1.658-.162 2-1Z"/><path style="opacity:.137" fill="#e0e6e5" d="M204.5 101.5c-3.872-.258-7.539.409-11 2 1.247-1.678 2.914-3.011 5-4 1.333 1.333 2.667 1.333 4 0 1.022.356 1.689 1.022 2 2Z"/><path style="opacity:.006" fill="#f1f3f2" d="M212.5 100.5v-1c2.053-.098 3.72.569 5 2-.901.79-1.568 1.79-2 3-.992.172-1.658-.162-2-1 1.333-.667 1.333-1.333 0-2-.667 0-1-.333-1-1Z"/><path style="opacity:.007" fill="#e5ebea" d="M172.5 99.5c1.112 2.099 1.779 4.433 2 7-1.908-.986-2.908-2.652-3-5 .838-.342 1.172-1.008 1-2Z"/><path style="opacity:.008" fill="#edf0ef" d="M152.5 96.5c1.753 2.646 2.753 5.646 3 9-.617-.111-1.117-.444-1.5-1-2.612 3.076-5.779 3.743-9.5 2-.963.47-.963 1.137 0 2h-3a184.09 184.09 0 0 0-23 1c-3.354 1.758-7.021 2.758-11 3-.709-.904-1.709-1.237-3-1v-1c4-.333 4-.667 0-1 2.461-1.031 5.127-1.698 8-2v-1a128.748 128.748 0 0 1 11-2 10.165 10.165 0 0 1-3 3 418.778 418.778 0 0 1 15-1.5c-.916-.278-1.582-.778-2-1.5a73.133 73.133 0 0 0 17-1 5.576 5.576 0 0 1-1-3c4.079 4.127 4.746 3.627 2-1.5.752-.67 1.086-1.504 1-2.5Zm-29 8h10c.418.722 1.084 1.222 2 1.5-5.019.411-10.019.911-15 1.5a10.165 10.165 0 0 0 3-3Zm-5 5a2.428 2.428 0 0 1-2-.5c1.333-.667 1.333-1.333 0-2 1.561-.188 2.228.645 2 2.5Z"/><path style="opacity:.004" fill="#f4f6f6" d="M186.5 98.5c.699 2.056 1.699 4.056 3 6a6.846 6.846 0 0 1 4-1c-1.411 2.039-3.411 3.039-6 3a29.417 29.417 0 0 0-2-7c.667 0 1-.333 1-1Z"/><path style="opacity:.004" fill="#fdfefd" d="M35.5 106.5c.75-1.073 1.75-1.24 3-.5a4.934 4.934 0 0 1-3 .5Z"/><path style="opacity:.008" fill="#eeefed" d="M218.5 101.5a273.689 273.689 0 0 1 15 5c-3.27 1.031-6.27.365-9-2a5.576 5.576 0 0 1-3 1c-.473-1.406-1.473-2.073-3-2v-2Z"/><path style="opacity:.009" fill="#dce0dd" d="M38.5 107.5c-4.118 1.209-8.451 1.876-13 2 1.875-1.739 4.208-2.739 7-3 1.953.656 3.953.989 6 1Z"/><path style="opacity:1" fill="#3a5340" d="M53.5 65.5c.63 2.25 1.63 4.25 3 6l1 6h-3c-1.155 5.355.512 9.522 5 12.5-1.859.6-2.192 1.434-1 2.5h1c.667 0 1 .333 1 1-.03.997.47 1.664 1.5 2 1.595-.856 2.428-2.19 2.5-4h2c-.086.996.248 1.83 1 2.5-1.537 1.11-2.204 2.61-2 4.5h-4c.193 2.975-.807 5.475-3 7.5 2.4.186 4.734.686 7 1.5-2.106 1.397-3.773 3.23-5 5.5 1.973.495 3.973.662 6 .5v-4c3.072-.313 5.905.354 8.5 2a2912.294 2912.294 0 0 0 37.5-5v1c-2.873.302-5.539.969-8 2a501.207 501.207 0 0 0-50 8c-1.068.934-2.401 1.268-4 1-1.915-.284-3.581.049-5 1a60.93 60.93 0 0 0-11 .5c-1.237.232-2.237.732-3 1.5h-2c-6.334.568-12.667.734-19 .5.916-.278 1.582-.778 2-1.5 2.867.131 4.533-1.203 5-4 2-2.667 4.333-5 7-7h1c4.549-.124 8.882-.791 13-2h1a56.905 56.905 0 0 0 9.5-2c.796-2.539.63-4.872-.5-7-.992-.172-1.658.162-2 1-1.791.134-3.458-.2-5-1v-2c2-.667 3.333-2 4-4 1.604-.787 2.27-2.12 2-4 1.713-1.135 2.38-2.802 2-5h-3a29.313 29.313 0 0 1 2-6.5c-.255-1.326-.922-2.326-2-3 .88-.708 1.547-1.542 2-2.5 1.548-.321 2.215-1.321 2-3a10.174 10.174 0 0 1 3-3Zm5 36c-1.278.282-2.278.949-3 2v1c-1.422-.25-2.422-1.083-3-2.5 1.162-.827 2.329-1.66 3.5-2.5 1.301.139 2.134.805 2.5 2Z"/><path style="opacity:.604" fill="#c8d0cb" d="M58.5 101.5c-.356 1.69-1.356 2.69-3 3v-1c.722-1.051 1.722-1.718 3-2Z"/><path style="opacity:.01" fill="#eef0ef" d="M58.5 101.5c-.366-1.195-1.199-1.861-2.5-2-1.171.84-2.338 1.673-3.5 2.5.578 1.417 1.578 2.25 3 2.5-1.068.934-2.401 1.268-4 1-1.336-6.658 1.33-9.325 8-8 .268 1.599-.066 2.932-1 4Z"/><path style="opacity:.006" fill="#eaeeed" d="M218.5 103.5c.473 1.406 1.473 2.073 3 2-.501 2.207-1.501 3.54-3 4-1.915-.284-3.581.049-5 1-2.841.06-5.507.726-8 2 .172-.992-.162-1.658-1-2 0-.667-.333-1-1-1 1.1-1.058 2.434-1.892 4-2.5l10-1c-.916-.278-1.582-.778-2-1.5a5.727 5.727 0 0 0 3-1Z"/><path style="opacity:.486" fill="#b3c3c2" d="M155.5 105.5c1.353 1.628 1.019 2.962-1 4-4.532.318-8.866-.015-13-1h3c3.53.511 6.696-.156 9.5-2 1.107 1.212 1.607.879 1.5-1Z"/><path style="opacity:.01" fill="#eaefee" d="M169.5 105.5a10.165 10.165 0 0 1 3 3l2-2c1.306 3.187 1.306 6.52 0 10-3.013-3.045-4.679-6.712-5-11Zm3 3c-.039 1.256.461 2.256 1.5 3 .725-1.657.225-2.657-1.5-3Z"/><path style="opacity:.01" fill="#e5e7e6" d="M24.5 109.5c-2.667 2-5 4.333-7 7-.11-.617-.444-1.117-1-1.5a11.529 11.529 0 0 0 3.5-4.5c1.356-.88 2.856-1.214 4.5-1Z"/><path style="opacity:.011" fill="#e9eeee" d="M203.5 109.5c.667 0 1 .333 1 1-.172.992.162 1.658 1 2a39.71 39.71 0 0 0-7 5c.359-1.871 1.359-3.371 3-4.5-.544-.717-1.211-1.217-2-1.5 1.014-1.174 2.347-1.84 4-2Z"/><path style="opacity:.696" fill="#acbdbd" d="M228.5 109.5v1h-15c1.419-.951 3.085-1.284 5-1 3.357-1.127 6.691-1.127 10 0Z"/><path style="opacity:.005" fill="#f1f2f1" d="M285.5 107.5h1a52.392 52.392 0 0 0 13 1 76.94 76.94 0 0 1-8.5 2c-2.296-.359-4.129-1.359-5.5-3Z"/><path style="opacity:.004" fill="#fdfefd" d="M254.5 111.5c2.128-1.129 4.461-1.296 7-.5-2.31.497-4.643.663-7 .5Z"/><path style="opacity:.993" fill="#3e6463" d="M213.5 110.5h15a783.45 783.45 0 0 0 13 1.5 454.766 454.766 0 0 1-26 2c-4.743.635-9.076 2.135-13 4.5-2.198.375-4.198 1.042-6 2h-1a24.935 24.935 0 0 1-7-.5c2.208-.191 4.208-.691 6-1.5 1.599.268 2.932-.066 4-1a39.71 39.71 0 0 1 7-5c2.493-1.274 5.159-1.94 8-2Z"/><path style="opacity:.013" fill="#e9eded" d="M199.5 111.5c-.132 2.507-1.132 3.174-3 2 .79-.901 1.79-1.568 3-2Z"/><path style="opacity:.059" fill="#dbe0de" d="M234.5 106.5a72.026 72.026 0 0 0 18.5 2 266.45 266.45 0 0 0 25-2c3.021.002 5.854.336 8.5 1h-1c-4.429-.478-8.596.188-12.5 2-2.555-.89-5.055-.557-7.5 1a69.67 69.67 0 0 0-20-.5c4 1.333 4 2.667 0 4-3.062.741-6.062.575-9-.5-3.588 1.79-7.255 2.123-11 1-3.768 2.297-7.768 2.63-12 1-1.847 1.011-3.68 2.011-5.5 3a3.647 3.647 0 0 0-1.5-1l-1 2a5.576 5.576 0 0 0-3-1c3.924-2.365 8.257-3.865 13-4.5a454.766 454.766 0 0 0 26-2 783.45 783.45 0 0 1-13-1.5v-1c2.82.413 4.82-.587 6-3Z"/><path style="opacity:.005" fill="#e8ebe9" d="M104.5 109.5v1c-2.667.333-2.667.667 0 1 0 .667.333 1 1 1a338.868 338.868 0 0 0-13 3c.763-.768 1.763-1.268 3-1.5a8.43 8.43 0 0 0-4-.5c-1.109.79-2.442 1.29-4 1.5a8.43 8.43 0 0 0 4 .5c-1.765.961-3.765 1.295-6 1h-2c1.36-1.509.86-2.176-1.5-2l-2.5.5c.916.278 1.582.778 2 1.5-1.208.734-2.541 1.067-4 1 1.158-1.45.658-2.45-1.5-3-.47 1.077-.303 2.077.5 3-1.765.961-3.765 1.295-6 1v-1c-5.201.601-10.535.601-16 0a501.207 501.207 0 0 1 50-8Zm-13 4a8.43 8.43 0 0 1 4 .5c-1.237.232-2.237.732-3 1.5h-1a8.43 8.43 0 0 1-4-.5c1.558-.21 2.891-.71 4-1.5Zm-14 4h-1c-.803-.923-.97-1.923-.5-3 2.158.55 2.658 1.55 1.5 3Zm6-1h-2c-.418-.722-1.084-1.222-2-1.5l2.5-.5c2.36-.176 2.86.491 1.5 2Zm-13 1c-.418-.722-1.084-1.222-2-1.5 1.789-.52 3.456-.187 5 1a4.934 4.934 0 0 1-3 .5Z"/><path style="opacity:.011" fill="#e6eaea" d="M196.5 113.5v2c-1.333 0-2 .667-2 2-5.333.333-5.333.667 0 1-1.792.809-3.792 1.309-6 1.5 2.31.497 4.643.663 7 .5v1c-4.398 1.938-8.065 1.105-11-2.5 2.432-1.087 2.098-1.587-1-1.5a124.861 124.861 0 0 0 13-4Z"/><path style="opacity:.175" fill="#d4dcdc" d="M94.5 117.5c8-1.333 16-1.333 24 0-7.943.484-15.943.484-24 0Z"/><path style="opacity:.014" fill="#dfe2df" d="M17.5 116.5c-.467 2.797-2.133 4.131-5 4 1.08-2.043 2.746-3.376 5-4Z"/><path style="opacity:.137" fill="#e9eded" d="M120.5 118.5v-1c1.291-.237 2.291.096 3 1-.702.616-1.702.616-3 0Z"/><path style="opacity:.098" fill="#e9eeee" d="m196.5 115.5 2 2c-1.068.934-2.401 1.268-4 1v-1c1.333 0 2-.667 2-2Z"/><path style="opacity:.055" fill="#eff0ef" d="M45.5 119.5c1.419-.951 3.085-1.284 5-1-1.396 1.873-3.063 2.206-5 1Z"/><path style="opacity:.004" fill="#fdfefd" d="M55.5 119.5c.397-1.025 1.063-1.192 2-.5a2.429 2.429 0 0 1-2 .5Z"/><path style="opacity:.553" fill="#97a5a4" d="M81.5 116.5h4c1.419.951 3.085 1.284 5 1 0 .667-.333 1-1 1h-5c-2.56-.302-4.893.032-7 1-2.885.306-5.552-.027-8-1h1c2.235.295 4.235-.039 6-1h1c1.459.067 2.792-.266 4-1Z"/><path style="opacity:.004" fill="#f8fafa" d="M90.5 117.5h4c-1.368.806-2.7 1.806-4 3-.797-.457-1.13-1.124-1-2 .667 0 1-.333 1-1Z"/><path style="opacity:.004" fill="#fefefe" d="M95.5 119.5c2.466-1.134 5.133-1.301 8-.5a32.462 32.462 0 0 1-8 .5Z"/><path style="opacity:.004" fill="#fdfefd" d="M120.5 118.5c-.397 1.025-1.063 1.192-2 .5a2.428 2.428 0 0 1 2-.5Z"/><path style="opacity:.012" fill="#eef2f2" d="M124.5 118.5c2.928.065 5.595.732 8 2-.65.304-1.317.637-2 1-2.547-.271-4.547-1.271-6-3Z"/><path style="opacity:.165" fill="#d1d6d2" d="M45.5 119.5c-.683 1.676-2.017 2.343-4 2-1.667-1.333-3.333-1.333-5 0-1.898.596-3.565.596-5 0 .763-.768 1.763-1.268 3-1.5a60.93 60.93 0 0 1 11-.5Z"/><path style="opacity:.007" fill="#f4f6f5" d="M69.5 118.5c2.448.973 5.115 1.306 8 1-.634 1.447-1.8 2.113-3.5 2a46.3 46.3 0 0 1-8.5-2c1.189-.929 2.522-1.262 4-1Z"/><path style="opacity:.004" fill="#f4f6f6" d="M77.5 119.5c2.107-.968 4.44-1.302 7-1-1.95 2.253-4.284 2.586-7 1Z"/><path style="opacity:.004" fill="#eff1f1" d="M202.5 118.5c-.535 1.946-1.868 2.946-4 3-.342-.838-1.008-1.172-2-1 1.802-.958 3.802-1.625 6-2Z"/><path style="opacity:.004" fill="#e6ecec" d="M183.5 117.5c-2.397 1.695-5.063 3.028-8 4-.709-.904-1.709-1.237-3-1a81.23 81.23 0 0 1 11-3Z"/><path style="opacity:.004" fill="#fefefe" d="M36.5 121.5h5c-1.667 1.333-3.333 1.333-5 0Z"/><path style="opacity:.004" fill="#fdfefd" d="M132.5 122.5c.397-1.025 1.063-1.192 2-.5a2.428 2.428 0 0 1-2 .5Z"/><path style="opacity:.004" fill="#f5f7f7" d="M135.5 120.5h4c1.419.951 3.085 1.284 5 1-3.127 1.315-6.127.982-9-1Z"/><path style="opacity:.059" fill="#d8e0e0" d="M139.5 120.5a172.433 172.433 0 0 0 33 0 81.316 81.316 0 0 1-3 2.5c-8.482.993-16.816.493-25-1.5-1.915.284-3.581-.049-5-1Z"/><path style="opacity:.004" fill="#fefefe" d="M175.5 121.5c-.397 1.025-1.063 1.192-2 .5a2.428 2.428 0 0 1 2-.5Z"/><path style="opacity:.004" fill="#fdfefd" d="M195.5 121.5h3c-1 1.333-2 1.333-3 0Z"/><path style="opacity:.01" fill="#f2f3f2" d="M12.5 120.5c-.418.722-1.084 1.222-2 1.5 6.333.234 12.666.068 19-.5a63.237 63.237 0 0 1-10 3 141.341 141.341 0 0 1-11-2c.602-2.659 1.935-3.326 4-2Z"/><path style="opacity:.004" fill="#fdfefd" d="M47.5 125.5c-.667-1.333-.667-1.333 0 0ZM58.5 124.5c1.333.667 1.333.667 0 0Z"/><path style="opacity:.037" fill="#ecedec" d="M58.5 125.5v1h-11v-1c3.65-1.228 7.316-1.228 11 0Z"/><path style="opacity:.675" fill="#666865" d="M46.5 126.5h13a8.435 8.435 0 0 1-.5 4c-.417-1.256-1.25-1.923-2.5-2-3-1.333-6-1.333-9 0l-2 1v-1l1-2Z"/><path style="opacity:.871" fill="#5e635f" d="M212.5 127.5v-1h7v1c-.992-.172-1.658.162-2 1-1.542-.801-3.208-1.134-5-1Z"/><path style="opacity:.184" fill="#e4e4e3" d="m221.5 128.5-2-1v-1c-.065-.438.101-.772.5-1 1.039.744 1.539 1.744 1.5 3Z"/><path style="opacity:.039" fill="#eee" d="M47.5 128.5c3-1.333 6-1.333 9 0-.667 0-1 .333-1 1h-7c0-.667-.333-1-1-1Z"/><path style="opacity:.004" fill="#fdfefd" d="M69.5 129.5h-3c.76-2.485 1.76-2.485 3 0ZM96.5 128.5c.397-1.025 1.063-1.192 2-.5a2.429 2.429 0 0 1-2 .5ZM141.5 127.5c1.333.667 1.333.667 0 0ZM187.5 128.5c1.462-.971 2.795-.638 4 1h-3c0-.667-.333-1-1-1ZM273.5 127.5c1.333.667 1.333.667 0 0Z"/><path style="opacity:.682" fill="#c4c5c3" d="m46.5 126.5-1 2-4 3c-.11-.617-.444-1.117-1-1.5 2.167-.833 3.667-2.333 4.5-4.5.383.556.883.889 1.5 1Z"/><path style="opacity:.11" fill="#e8e9e8" d="M59.5 126.5c2.526 1.702 2.359 3.368-.5 5-1.46-.308-2.626-.975-3.5-2 .667 0 1-.333 1-1 1.25.077 2.083.744 2.5 2a8.435 8.435 0 0 0 .5-4Z"/><path style="opacity:.014" fill="#e6e7e7" d="M187.5 128.5v1l-1 2c-1.38.462-2.047 1.462-2 3a11.948 11.948 0 0 0 3 5c-.617.111-1.117.444-1.5 1-3.322-2.516-4.322-5.516-3-9a11.105 11.105 0 0 1 4.5-3Z"/><path style="opacity:.005" fill="#e7e8e7" d="M212.5 127.5c1.792-.134 3.458.199 5 1 .652.949.986 2.115 1 3.5.107 2.221-.56 4.054-2 5.5-.418-.722-1.084-1.222-2-1.5 2.682-2.643 2.516-5.143-.5-7.5a40.914 40.914 0 0 0-.5 9h-1v-10Zm4 10h-3a40.914 40.914 0 0 1 .5-9c3.016 2.357 3.182 4.857.5 7.5.916.278 1.582.778 2 1.5Z"/><path style="opacity:.851" fill="#7c817b" d="M255.5 129.5a4.934 4.934 0 0 1-.5 3c-1.678-2.053-3.511-2.387-5.5-1-.904.709-1.237 1.709-1 3l-2-3 1-2c2.704-1.214 5.371-1.214 8 0Z"/><path style="opacity:.808" fill="#6f756f" d="M273.5 129.5c.172.992-.162 1.658-1 2h-4v14c.172.992-.162 1.658-1 2a73.133 73.133 0 0 0-1-17 2298.005 2298.005 0 0 1-2 16v-16c-1.599-.268-2.932.066-4 1-.876.131-1.543-.202-2-1a57.15 57.15 0 0 1 15-1Z"/><path style="opacity:.267" fill="#a4a7a6" d="M191.5 132.5c-.709-.904-1.709-1.237-3-1-.904.709-1.237 1.709-1 3-.904-.709-1.237-1.709-1-3l1-2h4c.996.086 1.829-.248 2.5-1 .5 1.167 1.333 2 2.5 2.5-1.349.772-2.182 1.939-2.5 3.5-.708-.881-1.542-1.547-2.5-2Z"/><path style="opacity:.808" fill="#4d534f" d="M210.5 126.5c-.626 7.084.041 13.75 2 20h1c-1.068.934-2.401 1.268-4 1-.325-7.187.009-14.187 1-21Z"/><path style="opacity:.098" fill="#e5e6e5" d="M230.5 129.5v2c-1.15 1.35-1.817 1.184-2-.5.336-1.03 1.003-1.53 2-1.5Z"/><path style="opacity:.004" fill="#fefefe" d="M80.5 131.5c-.315 3.871.018 7.538 1 11v1c-.904.709-1.237 1.709-1 3h-1c-.32-5.195.013-10.195 1-15Z"/><path style="opacity:.007" fill="#f9f9f9" d="M111.5 129.5c1.419-.951 3.085-1.284 5-1-.208 6.723-1.208 13.057-3 19 .62-6.426-.047-12.426-2-18Z"/><path style="opacity:.004" fill="#e2e4e3" d="M144.5 134.5a173.55 173.55 0 0 1-3-4 173.55 173.55 0 0 1-3 4c-1.06-2.452-.06-4.119 3-5 2.886.791 3.886 2.458 3 5Z"/><path style="opacity:.192" fill="#efefee" d="M221.5 128.5c.978.311 1.645.978 2 2-.494 1.526-1.161 2.859-2 4v-6Z"/><path style="opacity:.333" fill="#dedfde" d="M239.5 129.5h3c.05 2.09-.95 3.423-3 4-.798-.457-1.131-1.124-1-2 .838-.342 1.172-1.008 1-2Z"/><path style="opacity:.007" fill="#eee" d="m247.5 129.5-1 2c-1.113 1.446-1.28 3.113-.5 5a10.515 10.515 0 0 1 2.5 3c-.617.111-1.117.444-1.5 1-3.322-2.516-4.322-5.516-3-9l3-3c.399.228.565.562.5 1Z"/><path style="opacity:.014" fill="#f5f5f5" d="M47.5 128.5c.667 0 1 .333 1 1-.73 1.212-1.73 2.212-3 3 1.203 2.66 1.203 5.327 0 8-1.287-3.565-1.287-7.232 0-11l2-1Z"/><path style="opacity:.125" fill="#ececeb" d="M91.5 129.5c1.517 2.995.517 4.161-3 3.5.556-.383.89-.883 1-1.5 1.333 0 2-.667 2-2Z"/><path style="opacity:.004" fill="#e5e6e6" d="M106.5 137.5a45.59 45.59 0 0 0-9-7c-.667 0-1 .333-1 1-.543-.06-.876-.393-1-1 3.377-.728 6.377.272 9 3 1.13 1.122 1.797 2.456 2 4Z"/><path style="opacity:.071" fill="#ededed" d="M130.5 128.5c2.57 2.25 2.07 3.917-1.5 5l-2.5-.5c1.237-.232 2.237-.732 3-1.5.838-.342 1.172-1.008 1-2v-1Z"/><path style="opacity:.006" fill="#eeefef" d="M188.5 131.5c.709.904 1.709 1.237 3 1a31.147 31.147 0 0 1-2 2c1.112.765 1.779 1.765 2 3-1.904-.238-3.238-1.238-4-3-.237-1.291.096-2.291 1-3Z"/><path style="opacity:.032" fill="#e8eae8" d="M273.5 128.5v1a57.15 57.15 0 0 0-15 1c.457.798 1.124 1.131 2 1 1.068-.934 2.401-1.268 4-1v5c-.899-.972-2.066-1.638-3.5-2-3.174 1.27-6.341 1.27-9.5 0l-2 .5c1.824.66 3.157 1.827 4 3.5-2.174-.25-3.841-1.25-5-3-.237-1.291.096-2.291 1-3 1.989-1.387 3.822-1.053 5.5 1a4.934 4.934 0 0 0 .5-3c2.597-.221 2.597-.721 0-1.5 5.94.361 11.94.527 18 .5Z"/><path style="opacity:.005" fill="#ededed" d="M273.5 129.5c2.258.275 2.592 1.275 1 3-1.189.929-2.522 1.262-4 1 .317 4.202-.017 8.202-1 12v-13c1.291.237 2.291-.096 3-1 .838-.342 1.172-1.008 1-2Z"/><path style="opacity:.015" fill="#f6f7f7" d="M65.5 129.5c.628 6.101 1.295 12.101 2 18h10c-4.066 1.322-8.233 1.322-12.5 0 .354-6.402.52-12.402.5-18Z"/><path style="opacity:.714" fill="#656a66" d="M65.5 129.5h5c0 .667-.333 1-1 1-1.95 5.235-2.617 10.902-2 17a1111.745 1111.745 0 0 1-2-18Z"/><path style="opacity:.013" fill="#e1e3e1" d="M138.5 134.5c-.16 1.653-.826 2.986-2 4-1.648-2.372-.981-3.706 2-4Z"/><path style="opacity:.984" fill="#343d35" d="M144.5 134.5v1c.492 2.319 1.492 4.319 3 6-.271 1.88.396 3.213 2 4-.12 1.086-.787 1.753-2 2-1.239-.442-2.239-1.109-3-2 .271-1.88-.396-3.213-2-4 .284-1.915-.049-3.581-1-5-.06-.543-.393-.876-1-1-.886.825-1.219 1.825-1 3-.904.709-1.237 1.709-1 3-1.238 1.714-1.905 3.714-2 6-1.679.215-2.679-.452-3-2 1.431-1.28 2.098-2.947 2-5-.172-.992.162-1.658 1-2 1.174-1.014 1.84-2.347 2-4a173.55 173.55 0 0 0 3-4 173.55 173.55 0 0 0 3 4Z"/><path style="opacity:.004" fill="#fdfefd" d="M228.5 134.5c1.333.667 1.333.667 0 0Z"/><path style="opacity:.938" fill="#393e3a" d="M128.5 129.5h2c.172.992-.162 1.658-1 2-1.419-.951-3.085-1.284-5-1v7c5.333.333 5.333.667 0 1v9h-3a128.507 128.507 0 0 0-.5-16l-1.5-1.5a40.914 40.914 0 0 1 9-.5Z"/><path style="opacity:.013" fill="#eff0ef" d="M99.5 135.5c1.667 1 3 2.333 4 4a104.838 104.838 0 0 0-4 8v-12Z"/><path style="opacity:.176" fill="#e7e8e7" d="M130.5 128.5c-.992-.172-1.658.162-2 1a40.914 40.914 0 0 0-9 .5l1.5 1.5c.499 5.323.666 10.656.5 16h3v-9c5.333-.333 5.333-.667 0-1v-7c1.915-.284 3.581.049 5 1h-4a12.93 12.93 0 0 0 .5 5c1.717-.888 2.884-.221 3.5 2-.333 2.333-1.333 2.667-3 1-1.452 2.782-1.119 5.282 1 7.5-3.312 2.241-6.312 1.908-9-1 1.124-.839 1.791-2.006 2-3.5-.928-2.394-.928-4.727 0-7a18.924 18.924 0 0 0-3-5 3.647 3.647 0 0 1 1-1.5 84.8 84.8 0 0 0 10.5-1.5c.765.07 1.265.403 1.5 1Z"/><path style="opacity:.01" fill="#e9eaea" d="M221.5 134.5a30.121 30.121 0 0 0 0 7c-3.755-2.21-3.755-4.544 0-7Z"/><path style="opacity:.742" fill="#7c827c" d="M239.5 129.5c.172.992-.162 1.658-1 2-1.419-.951-3.085-1.284-5-1-1.641 4.751-2.641 9.751-3 15v-16c3-1.333 6-1.333 9 0Z"/><path style="opacity:.365" fill="#d6d8d6" d="M233.5 130.5c1.915-.284 3.581.049 5 1-4.393-.043-4.726.457-1 1.5a6.802 6.802 0 0 0-3 1.5c.346 1.196.846 1.196 1.5 0 2.391.929 4.225 2.429 5.5 4.5-.43 1.434-1.264 2.601-2.5 3.5-.906-2.112-2.406-2.945-4.5-2.5l2 1c-1.783 1.067-2.283 2.567-1.5 4.5 1.145-1.184 2.312-1.184 3.5 0-1.068.934-2.401 1.268-4 1-.973-2.448-1.306-5.115-1-8 8-.333 8-.667 0-1v-7Z"/><path style="opacity:.992" fill="#262e27" d="m246.5 131.5 2 3c1.159 1.75 2.826 2.75 5 3-.073 1.527.594 2.527 2 3 .134 1.792-.199 3.458-1 5l-2-3c-.762-1.762-2.096-2.762-4-3a10.515 10.515 0 0 0-2.5-3c-.78-1.887-.613-3.554.5-5Z"/><path style="opacity:.01" fill="#f8f9f8" d="M264.5 136.5v10c.709.904 1.709 1.237 3 1 .838-.342 1.172-1.008 1-2h1v3c-3.104.529-5.437-.471-7-3 .176-2.172.343-4.505.5-7 .278-.916.778-1.582 1.5-2Z"/><path style="opacity:.11" fill="#dbdfdb" d="M141.5 136.5v2c-1.333.333-1.333.667 0 1-1.123 1.257-1.789.924-2-1-.219-1.175.114-2.175 1-3 .607.124.94.457 1 1Z"/><path style="opacity:.012" fill="#f4f5f4" d="M147.5 141.5c-1.508-1.681-2.508-3.681-3-6 .617-.111 1.117-.444 1.5-1a14.444 14.444 0 0 0 2.5 5.5c-.556.383-.889.883-1 1.5Z"/><path style="opacity:.992" fill="#28302a" d="M186.5 131.5c-.237 1.291.096 2.291 1 3 .762 1.762 2.096 2.762 4 3 2.59 3.117 2.59 6.117 0 9h-1c1.853-3.605.853-5.938-3-7a11.948 11.948 0 0 1-3-5c-.047-1.538.62-2.538 2-3Z"/><path style="opacity:.533" fill="#acb0af" d="M212.5 137.5h4v3a43.836 43.836 0 0 1-2-1 9.86 9.86 0 0 0-1 6v1h-1v-9Z"/><path style="opacity:.995" fill="#2b342c" d="M69.5 130.5c-.32 5.195.013 10.195 1 15l7 2h-10c-.617-6.098.05-11.765 2-17Z"/><path style="opacity:.992" fill="#252e29" d="M85.5 137.5c6.667.333 6.667.667 0 1a345.429 345.429 0 0 0-2 8c-1.333-5.333-1.333-10.667 0-16a246.036 246.036 0 0 0 2 7Z"/><path style="opacity:.992" fill="#252e28" d="M97.5 130.5a45.59 45.59 0 0 1 9 7c.333 1 1 1.667 2 2 .321 1.548 1.321 2.215 3 2 .908-12.472.908-10.805 0 5a18.33 18.33 0 0 0-6-4c-.333-1-1-1.667-2-2v-1c-1-1.667-2.333-3-4-4-.823 3.477-1.323 7.144-1.5 11a128.43 128.43 0 0 1-.5-16Z"/><path style="opacity:.01" fill="#ecedec" d="M106.5 137.5c2.493-.369 3.16.297 2 2-1-.333-1.667-1-2-2Z"/><path style="opacity:.12" fill="#e6e7e6" d="M218.5 126.5h-8c-.991 6.813-1.325 13.813-1 21 1.599.268 2.932-.066 4-1v-1c1.733.508 2.066 1.341 1 2.5-2.563.918-4.73.418-6.5-1.5-.667-7-.667-14 0-21a39.405 39.405 0 0 1 8.5-1c1.022.355 1.689 1.022 2 2Z"/><path style="opacity:.976" fill="#212923" d="M210.5 126.5h2v20c-1.959-6.25-2.626-12.916-2-20Z"/><path style="opacity:1" fill="#1f2a21" d="M267.5 147.5c-1.291.237-2.291-.096-3-1 .667-5.181 1.333-10.515 2-16a73.133 73.133 0 0 1 1 17Z"/><path style="opacity:.011" fill="#eee" d="M89.5 131.5a4.934 4.934 0 0 0-3 .5 20.515 20.515 0 0 0 2.5 4.5c2.158-1.177 3.658-.51 4.5 2-.029 1.529-.695 2.696-2 3.5l2.5 2.5a90.316 90.316 0 0 1 2.5-11v14h3c.13.876-.203 1.543-1 2-1.934-.401-3.434-1.401-4.5-3-.383.556-.883.889-1.5 1a4.932 4.932 0 0 0-.5-3c-1.789 1.729-3.956 2.396-6.5 2v-8c6.667-.333 6.667-.667 0-1v-7c1.599-.268 2.932.066 4 1Zm-1 8c.839 1.141 1.506 2.474 2 4-.825.886-1.825 1.219-3 1-.134-1.792.2-3.458 1-5Z"/><path style="opacity:.459" fill="#b8bcb8" d="M253.5 137.5c1.406.473 2.073 1.473 2 3-1.406-.473-2.073-1.473-2-3Z"/><path style="opacity:.008" fill="#eaeaea" d="M41.5 131.5c-1.333 3.667-1.333 7.333 0 11-1.62-.287-2.62-1.287-3-3 .56-1.926.727-3.926.5-6 .417-1.256 1.25-1.923 2.5-2Z"/><path style="opacity:.671" fill="#808480" d="M97.5 130.5c-.166 5.344 0 10.677.5 16 .177-3.856.677-7.523 1.5-11v12h-3v-16c0-.667.333-1 1-1Z"/><path style="opacity:.647" fill="#8f968e" d="M141.5 136.5c.951 1.419 1.284 3.085 1 5h-4c-.237-1.291.096-2.291 1-3 .211 1.924.877 2.257 2 1v-3Z"/><path style="opacity:.973" fill="#252e26" d="M233.5 130.5v7c8 .333 8 .667 0 1-.306 2.885.027 5.552 1 8v1c-1.983.343-3.317-.324-4-2 .359-5.249 1.359-10.249 3-15Z"/><path style="opacity:.007" fill="#f0f1f0" d="M248.5 139.5c1.904.238 3.238 1.238 4 3-.838.342-1.172 1.008-1 2-1.237-1.465-2.237-3.132-3-5Z"/><path style="opacity:.008" fill="#f2f3f2" d="M103.5 140.5c1 .333 1.667 1 2 2-1.333 0-2-.667-2-2Z"/><path style="opacity:.013" fill="#ececec" d="M135.5 140.5c.098 2.053-.569 3.72-2 5 0-.667-.333-1-1-1 .238-1.904 1.238-3.238 3-4Z"/><path style="opacity:.004" fill="#d6d9d7" d="M187.5 139.5c3.853 1.062 4.853 3.395 3 7-1.915.284-3.581-.049-5-1h4c-.104-2.203-.77-4.203-2-6Z"/><path style="opacity:.01" fill="#edeeed" d="M138.5 141.5h4c1.604.787 2.271 2.12 2 4-3.286-3.018-5.619-2.352-7 2-2.333 1.333-4.667 1.333-7 0 .442-1.239 1.109-2.239 2-3 .667 0 1 .333 1 1 .321 1.548 1.321 2.215 3 2 .095-2.286.762-4.286 2-6Z"/><path style="opacity:.014" fill="#f1f2f0" d="M147.5 141.5c1.604.787 2.271 2.12 2 4-1.604-.787-2.271-2.12-2-4Z"/><path style="opacity:.992" fill="#2d332f" d="M217.5 128.5c.342-.838 1.008-1.172 2-1l2 1v6c-3.755 2.456-3.755 4.79 0 7 .703 2.216 2.036 4.049 4 5.5-2.34.748-4.34.248-6-1.5-.61-1.934-1.61-3.601-3-5v-3c1.44-1.446 2.107-3.279 2-5.5-.014-1.385-.348-2.551-1-3.5Z"/><path style="opacity:.011" fill="#f0f1f0" d="M255.5 140.5c1.195.366 1.861 1.199 2 2.5-2.133 6.717-6.466 8.384-13 5-1.167-.5-2-1.333-2.5-2.5-.278.916-.778 1.582-1.5 2 .369-2.493-.297-3.16-2-2 2.485-.321 4.819-1.655 7-4 .798.457 1.131 1.124 1 2-2.152.577-2.485 1.744-1 3.5 2.667.667 5.333.667 8 0 .556-.383.889-.883 1-1.5.801-1.542 1.134-3.208 1-5Z"/><path style="opacity:.992" fill="#383c37" d="M45.5 128.5v1c-1.287 3.768-1.287 7.435 0 11 1.716 5.354 5.383 7.354 11 6v1c-6.032 1.125-11.032-.541-15-5-1.333-3.667-1.333-7.333 0-11l4-3Z"/><path style="opacity:.539" fill="#afb3b0" d="M70.5 129.5c.876-.131 1.543.202 2 1-1.819 4.801-2.486 9.801-2 15-.987-4.805-1.32-9.805-1-15 .667 0 1-.333 1-1Z"/><path style="opacity:.004" fill="#eaebeb" d="M105.5 142.5a18.33 18.33 0 0 1 6 4c.342.838 1.008 1.172 2 1-.672.767-1.505 1.434-2.5 2-2.454-1.941-4.287-4.275-5.5-7Z"/><path style="opacity:.525" fill="#909592" d="M111.5 129.5c1.953 5.574 2.62 11.574 2 18-.992.172-1.658-.162-2-1 .908-15.805.908-17.472 0-5-1.679.215-2.679-.452-3-2 .617.111 1.117.444 1.5 1l.5-3.5c-.535-1.872-.535-3.538 0-5-2.832-1.908-2.499-2.741 1-2.5Z"/><path style="opacity:.004" fill="#fefffe" d="M186.5 143.5c1.333.667 1.333.667 0 0Z"/><path style="opacity:.004" fill="#fdfefd" d="M195.5 143.5c1.333.667 1.333.667 0 0Z"/><path style="opacity:.047" fill="#e2e3e2" d="M216.5 140.5c1.39 1.399 2.39 3.066 3 5h-1c-2.159-1.285-2.826-2.952-2-5Z"/><path style="opacity:.596" fill="#8b8f8c" d="M91.5 129.5c0 1.333-.667 2-2 2-1.068-.934-2.401-1.268-4-1v7a246.036 246.036 0 0 1-2-7c-1.333 5.333-1.333 10.667 0 16a345.429 345.429 0 0 1 2-8v8c2.544.396 4.711-.271 6.5-2 .483.948.65 1.948.5 3-3.871.315-7.538-.018-11-1v-4c.315-3.871-.018-7.538-1-11-.086-.996.248-1.829 1-2.5 3.424-.747 6.757-.58 10 .5Z"/><path style="opacity:.008" fill="#eee" d="M221.5 141.5a17.902 17.902 0 0 1 6 4c1.027-1.291 2.027-1.291 3 0 .683 1.676 2.017 2.343 4 2h6a2.428 2.428 0 0 1-.5 2c-6-1.333-12-1.333-18 0-1.481-.971-2.315-2.304-2.5-4 1.66 1.748 3.66 2.248 6 1.5-1.964-1.451-3.297-3.284-4-5.5Z"/><path style="opacity:.098" fill="#eaeae9" d="M41.5 142.5c3.968 4.459 8.968 6.125 15 5 .65-.304 1.316-.637 2-1 .708-2.866 1.375-5.7 2-8.5a8.43 8.43 0 0 0-4-.5v9c-5.617 1.354-9.284-.646-11-6 1.98 1.644 3.98 3.31 6 5a6.845 6.845 0 0 1 4-1c.338-2.657-.329-4.99-2-7a167.813 167.813 0 0 1 6.5-2 11.392 11.392 0 0 1 2.5 2c-1.135 1.962-1.135 3.962 0 6l-4 6c-3.333-1.333-6.667-1.333-10 0-3.642-1.267-5.976-3.6-7-7Z"/><path style="opacity:.996" fill="#2a2d27" d="M56.5 147.5v-10a8.43 8.43 0 0 1 4 .5c-.625 2.8-1.292 5.634-2 8.5-.684.363-1.35.696-2 1Z"/><path style="opacity:.099" fill="#eceded" d="M79.5 146.5c-.342.838-1.008 1.172-2 1l-7-2c2.985-.613 5.985-.28 9 1Z"/><path style="opacity:.025" fill="#edeeee" d="M185.5 145.5c-.722-.418-1.222-1.084-1.5-2a8.43 8.43 0 0 0-.5 4c-.992.172-1.658-.162-2-1 .565-1.886 1.565-3.553 3-5 .929 1.189 1.262 2.522 1 4Z"/><path style="opacity:.004" fill="#fdfefd" d="M218.5 145.5c-.667.667-.667.667 0 0Z"/><path style="opacity:.034" fill="#eaeaea" d="M163.5 145.5c-.039-1.256.461-2.256 1.5-3a6.547 6.547 0 0 0 3 3 39.924 39.924 0 0 0-.5-15c1.413-2.107 3.08-2.44 5-1h-3v18c3.35.165 6.683-.002 10-.5a18.453 18.453 0 0 0-6-.5v-17a2.428 2.428 0 0 1 2 .5 263.432 263.432 0 0 0 0 15.5c2.092-.061 3.592-1.061 4.5-3a10.134 10.134 0 0 1 1.5 4c-4.747 2.285-9.747 2.618-15 1-2.845.333-5.345 1.333-7.5 3-4.518-1.907-9.352-2.574-14.5-2v-3c.761.891 1.761 1.558 3 2 1.213-.247 1.88-.914 2-2 1.325-1.453 2.158-1.119 2.5 1l1-2a230.01 230.01 0 0 0-.5-14c2.107-2.449 4.44-2.616 7-.5a153.926 153.926 0 0 1-.5 15.5c1.414-.913 2.914-.913 4.5 0Z"/><path style="opacity:.988" fill="#2f3730" d="M154.5 130.5c1.641 4.751 2.641 9.751 3 15 2 1.333 4 1.333 6 0 .543.06.876.393 1 1a25.879 25.879 0 0 1-10 1v-17Z"/><path style="opacity:.902" fill="#676b66" d="M172.5 129.5h1v17a18.453 18.453 0 0 1 6 .5c-3.317.498-6.65.665-10 .5v-18h3Z"/><path style="opacity:.702" fill="#636964" d="M154.5 130.5c.709-.904 1.709-1.237 3-1v16c-.359-5.249-1.359-10.249-3-15Z"/><path style="opacity:1" fill="#1f251b" d="M170.5 130.5c1.312 2.243 1.978 4.91 2 8l-1 8a64.873 64.873 0 0 1-1-16Z"/><path style="opacity:.659" fill="#6a706b" d="M185.5 145.5c1.419.951 3.085 1.284 5 1h1c-2.448.973-5.115 1.306-8 1a8.43 8.43 0 0 1 .5-4c.278.916.778 1.582 1.5 2Z"/><path style="opacity:.659" fill="#7e817e" d="M240.5 147.5h-6v-1c1.599.268 2.932-.066 4-1 1.703-1.16 2.369-.493 2 2Z"/><path style="opacity:.812" fill="#5e6660" d="m252.5 142.5 2 3c-.111.617-.444 1.117-1 1.5a16.242 16.242 0 0 1-8 0c-1.485-1.756-1.152-2.923 1-3.5v3c2.582.475 4.582-.192 6-2v-2Z"/><path style="opacity:.329" fill="#cccfcd" d="M246.5 143.5a58.53 58.53 0 0 1 3 2c.916-.043 1.583-.376 2-1h1c-1.418 1.808-3.418 2.475-6 2v-3Z"/><path style="opacity:.106" fill="#eeefee" d="M80.5 146.5h1c3.462.982 7.129 1.315 11 1-1.803.662-3.803.995-6 1-2.452-.039-4.452-.706-6-2Z"/><path style="opacity:.031" fill="#ededed" d="M191.5 137.5c.996-.086 1.829.248 2.5 1 .191 2.208.691 4.208 1.5 6-1.242 1.75-2.742 3.417-4.5 5-2.132-1.28-4.298-1.28-6.5 0-.798-.457-1.131-1.124-1-2 2.885.306 5.552-.027 8-1 2.59-2.883 2.59-5.883 0-9Z"/></svg>