<?xml version="1.0" encoding="UTF-8"?>
<svg version="1.1" xmlns="http://www.w3.org/2000/svg" width="592" height="591">
<path d="M0 0 C1.11163513 0.00304138 2.22327026 0.00608276 3.36859131 0.00921631 C20.84405779 0.07971096 37.71875499 0.86685651 54.875 4.4375 C55.96296875 4.66244141 57.0509375 4.88738281 58.171875 5.11914062 C87.86866021 11.4453924 116.38722952 21.52052505 142.875 36.4375 C143.67131836 36.87707031 144.46763672 37.31664062 145.28808594 37.76953125 C155.78114192 43.56513877 165.63483571 49.81438215 175.140625 57.11767578 C176.89958 58.45620488 178.67940926 59.7610287 180.46875 61.05859375 C181.31578491 61.67710205 181.31578491 61.67710205 182.17993164 62.30810547 C183.71170465 63.42641201 185.24448885 64.54333311 186.77734375 65.66015625 C187.46957031 66.24667969 188.16179687 66.83320312 188.875 67.4375 C188.875 68.0975 188.875 68.7575 188.875 69.4375 C189.44863281 69.69402344 190.02226562 69.95054688 190.61328125 70.21484375 C205.1567399 78.07685162 218.9958337 95.52663187 228.875 108.4375 C229.85159561 109.66377209 230.82956583 110.88895019 231.80859375 112.11328125 C264.00496986 152.7942686 283.62639484 200.64304267 291.5625 251.75 C291.68206055 252.51344727 291.80162109 253.27689453 291.92480469 254.06347656 C293.81202289 266.94579214 294.08256915 279.88151075 294.0625 292.875 C294.06156342 293.66396667 294.06062683 294.45293335 294.05966187 295.26580811 C293.8911285 361.08016146 271.74201182 422.28858388 232.22851562 474.60668945 C231.06319629 476.1829394 229.96234441 477.80648338 228.875 479.4375 C228.215 479.4375 227.555 479.4375 226.875 479.4375 C226.6378125 479.99308594 226.400625 480.54867188 226.15625 481.12109375 C224.5742626 483.98121121 222.59837285 486.10698669 220.375 488.5 C217.96963269 491.09670335 215.84095796 493.48856306 213.875 496.4375 C213.215 496.4375 212.555 496.4375 211.875 496.4375 C211.60945313 497.02917969 211.34390625 497.62085938 211.0703125 498.23046875 C207.64423811 504.55639041 200.55616719 510.14070918 194.875 514.4375 C194.215 514.4375 193.555 514.4375 192.875 514.4375 C192.545 515.4275 192.215 516.4175 191.875 517.4375 C190.47070313 518.78100586 190.47070313 518.78100586 188.65625 520.15234375 C187.98078125 520.66724365 187.3053125 521.18214355 186.609375 521.71264648 C185.87203125 522.26122314 185.1346875 522.8097998 184.375 523.375 C183.60671875 523.9512915 182.8384375 524.52758301 182.046875 525.12133789 C180.44201124 526.31957716 178.83388282 527.5134553 177.22265625 528.703125 C175.74681448 529.79343074 174.27485284 530.88902848 172.80859375 531.9921875 C111.62123307 577.97394165 32.58538585 595.03152351 -42.5859375 584.77734375 C-63.03184739 581.84277209 -83.87899828 577.03426776 -102.859375 568.8359375 C-105.21552998 567.82696204 -107.57033253 566.85513564 -109.953125 565.9140625 C-126.07546414 559.51344784 -141.59834196 551.9483133 -156.125 542.4375 C-157.12660156 541.79167969 -158.12820312 541.14585937 -159.16015625 540.48046875 C-169.58758125 533.65891459 -179.41728493 526.19948468 -188.84936523 518.06713867 C-191.21238683 516.03160607 -193.52493299 514.17087801 -196.125 512.4375 C-196.125 511.7775 -196.125 511.1175 -196.125 510.4375 C-196.7022583 510.18476318 -197.2795166 509.93202637 -197.87426758 509.67163086 C-200.3980652 508.28777177 -202.09923326 506.72209122 -204.13671875 504.69140625 C-204.89009521 503.94213867 -205.64347168 503.19287109 -206.41967773 502.42089844 C-207.60412476 501.22255371 -207.60412476 501.22255371 -208.8125 500 C-210.03078491 498.77265137 -210.03078491 498.77265137 -211.27368164 497.52050781 C-216.95696165 491.74299193 -222.18467294 485.86463025 -227.125 479.4375 C-227.95644531 478.42300781 -228.78789062 477.40851563 -229.64453125 476.36328125 C-261.85592565 436.93028122 -281.28066519 388.88083765 -289.8125 339 C-289.93206055 338.30277832 -290.05162109 337.60555664 -290.17480469 336.88720703 C-291.74909451 327.21102858 -292.28698096 317.555706 -292.328125 307.76171875 C-292.33382507 306.67526566 -292.33952515 305.58881256 -292.34539795 304.46943665 C-292.35478741 302.17942255 -292.36135762 299.8893953 -292.36523438 297.59936523 C-292.37486759 294.17210944 -292.40592052 290.74547319 -292.4375 287.31835938 C-292.50597785 273.09999572 -291.4989681 259.45370682 -289.125 245.4375 C-288.93147949 244.23762451 -288.73795898 243.03774902 -288.53857422 241.80151367 C-283.73713317 213.42874609 -274.54071392 185.89836224 -261.16357422 160.42480469 C-260.0827785 158.35670946 -259.02681453 156.27709744 -257.97265625 154.1953125 C-243.0903852 125.08298149 -220.3458867 93.42821734 -194.125 73.4375 C-193.465 73.4375 -192.805 73.4375 -192.125 73.4375 C-191.63 71.9525 -191.63 71.9525 -191.125 70.4375 C-189.03594973 68.61620125 -186.95266813 66.92263584 -184.75 65.25 C-184.11296143 64.75951172 -183.47592285 64.26902344 -182.81958008 63.76367188 C-180.92776958 62.31299148 -179.02779114 60.87373396 -177.125 59.4375 C-176.20847656 58.74011719 -175.29195313 58.04273438 -174.34765625 57.32421875 C-141.3487704 32.76572589 -103.32914295 15.2754797 -63.125 6.4375 C-61.3925 6.04304687 -61.3925 6.04304687 -59.625 5.640625 C-39.86065032 1.39302353 -20.18377219 -0.11788745 0 0 Z " fill="#3EBA2E" transform="translate(293.125,1.5625)"/>
<path d="M0 0 C8.71196158 4.61310466 15.27126697 11.32037891 20.875 19.31640625 C21.42220703 20.08670166 21.96941406 20.85699707 22.53320312 21.65063477 C30.92474922 33.64423517 39.38556752 46.39712351 44.625 60.12890625 C45.058125 61.24265625 45.49125 62.35640625 45.9375 63.50390625 C47.98309287 74.28975958 46.93005043 83.13221418 40.875 92.43554688 C34.6456473 100.87437311 25.59130458 106.97956802 17.23046875 113.109375 C11.47463816 117.57079091 7.81156898 121.77217858 6.625 129.12890625 C4.81756035 154.20302362 22.03708768 175.04054383 37.625 193.12890625 C40.15933601 195.96736259 42.71719273 198.7808315 45.296875 201.578125 C47.25439964 203.72286256 49.13412213 205.90525082 51 208.12890625 C62.48828347 221.25453853 79.08447825 236.15675882 96.93359375 238.421875 C104.78306472 238.87496459 110.47724908 236.6877721 116.44775391 231.56494141 C120.63139081 227.77581186 124.68164162 223.84812584 128.74316406 219.92919922 C137.01555715 212.01526219 145.20407823 205.42106728 157.0625 204.56640625 C172.90790826 205.41224655 187.33269272 218.02161668 198.625 228.12890625 C199.51316406 228.9178125 200.40132813 229.70671875 201.31640625 230.51953125 C202.95739011 231.98845577 204.59173759 233.46483406 206.21875 234.94921875 C207.86772996 236.44293761 209.53555299 237.91604091 211.21875 239.37109375 C219.04330587 246.18222823 226.80518769 253.10157735 227.90625 263.8828125 C228.26376538 271.02418217 227.45841396 275.7584463 222.625 281.12890625 C220.69307122 282.98808458 218.70975622 284.72457011 216.640625 286.4296875 C214.78732144 287.9920655 213.15873996 289.61544786 211.5 291.37890625 C191.68962717 311.32373863 165.79384091 322.30495813 137.6875 322.50390625 C127.97537666 322.4577661 119.06794551 321.34623341 109.625 319.12890625 C107.8341823 318.81157729 106.04260584 318.49847299 104.25 318.19140625 C97.11582781 316.74772891 90.81966065 313.87830612 84.625 310.12890625 C83.42746094 309.7009375 82.22992188 309.27296875 80.99609375 308.83203125 C76.46879441 307.16173062 72.44120977 304.92071995 68.3125 302.44140625 C67.56830811 301.99788818 66.82411621 301.55437012 66.05737305 301.09741211 C59.98468965 297.43353127 54.23432426 293.47212589 48.625 289.12890625 C47.50522942 288.27731602 46.38543647 287.42575521 45.265625 286.57421875 C37.88349107 280.91221341 30.9232958 274.93240005 24.15332031 268.55566406 C22.55182263 267.06059179 20.93113993 265.58895999 19.3046875 264.12109375 C12.66096855 258.10836939 6.51162582 251.89852594 0.625 245.12890625 C-0.873188 243.4814233 -2.37321048 241.83560685 -3.875 240.19140625 C-8.55903148 234.98062382 -12.99164656 229.59358363 -17.375 224.12890625 C-18.19484375 223.12730469 -19.0146875 222.12570312 -19.859375 221.09375 C-32.69449823 205.26111628 -44.08633018 188.27448131 -53.375 170.12890625 C-53.80151855 169.30567871 -54.22803711 168.48245117 -54.66748047 167.63427734 C-61.08525948 155.13600062 -65.89722569 142.73459769 -69.375 129.12890625 C-69.58382812 128.36433105 -69.79265625 127.59975586 -70.0078125 126.81201172 C-77.45914904 99.27625779 -74.29824006 70.07537814 -60.68359375 45.015625 C-50.89377309 28.95668485 -22.14323655 -8.12161472 0 0 Z " fill="#FDFEFD" transform="translate(218.375,134.87109375)"/>
<path d="M0 0 C8.16507671 -0.24695884 15.82734804 0.64938541 23.875 2 C24.52217987 2.10815033 25.16935974 2.21630066 25.83615112 2.32772827 C53.42047356 7.00461412 80.34572292 15.7261425 105 29 C106.16660156 29.61359375 107.33320313 30.2271875 108.53515625 30.859375 C139.30338196 47.64835047 164.8220015 73.76605 181.97509766 104.18505859 C182.96086379 105.93069591 183.9702142 107.66295097 184.98046875 109.39453125 C194.56383237 126.43799828 201.42014588 145.02169896 206 164 C206.43359188 165.74869838 206.86718571 167.49739628 207.30078125 169.24609375 C208.58521614 174.48596684 209.81112608 179.73766859 211 185 C211.17337891 185.76666992 211.34675781 186.53333984 211.52539062 187.32324219 C211.98822671 189.40047265 212.43571322 191.48017667 212.875 193.5625 C213.11992187 194.71878906 213.36484375 195.87507812 213.6171875 197.06640625 C213.9745246 199.80477527 213.91728842 201.43033587 213 204 C209.32238669 205.17683626 205.83330292 205.03578346 202 205 C201.82984375 204.10619629 201.6596875 203.21239258 201.484375 202.29150391 C189.97317585 142.49296734 168.14158132 86.97551792 116.734375 50.6953125 C99.32597839 39.10346547 80.72614897 30.80618718 61 24 C59.81277344 23.58105469 58.62554687 23.16210938 57.40234375 22.73046875 C38.81641637 16.5841344 19.39211757 13.99935495 0 12 C0 8.04 0 4.08 0 0 Z " fill="#F9FCF9" transform="translate(293,98)"/>
<path d="M0 0 C6.36970531 -0.2009136 12.24325247 0.52021681 18.5 1.6875 C19.95031616 1.95651123 19.95031616 1.95651123 21.42993164 2.23095703 C63.25649836 10.31301736 103.299424 33.90817863 127.5859375 69.3359375 C128.39530558 70.55419498 129.20006427 71.77552836 130 73 C130.3909082 73.59458008 130.78181641 74.18916016 131.18457031 74.80175781 C146.53363344 98.47399492 159.44003267 128.39787621 159 157 C155.37 157.33 151.74 157.66 148 158 C147.731875 156.659375 147.46375 155.31875 147.1875 153.9375 C146.99800781 153.01066406 146.80851563 152.08382812 146.61328125 151.12890625 C146.20356885 149.03859014 145.82601815 146.94171942 145.48046875 144.83984375 C142.2986776 126.63178732 135.94186193 109.14380492 127 93 C126.35592456 91.79081497 125.71269216 90.58118051 125.0703125 89.37109375 C114.86843907 70.4935101 100.42689599 54.44294876 83 42 C82.44618652 41.60329102 81.89237305 41.20658203 81.32177734 40.79785156 C56.58353019 23.37078994 28.30680315 16.32340418 -1 11 C-0.67 7.37 -0.34 3.74 0 0 Z " fill="#F9FCF9" transform="translate(297,149)"/>
<path d="M0 0 C24.39044511 5.78068761 45.82264319 17.88821238 64 35 C64.60328125 35.53882813 65.2065625 36.07765625 65.828125 36.6328125 C84.59428172 54.0835844 93.73870561 80.1752218 97 105 C95.56445975 105.50559908 94.1264798 106.0042749 92.6875 106.5 C91.88699219 106.7784375 91.08648437 107.056875 90.26171875 107.34375 C88 108 88 108 85 108 C84.78085937 106.82566406 84.56171875 105.65132813 84.3359375 104.44140625 C78.31515015 73.3616531 65.69765312 48.62829644 39.00610352 30.53149414 C25.90968488 21.90675688 11.90170223 16.65998249 -3 12 C-2.69106068 10.3743193 -2.3777305 8.74947252 -2.0625 7.125 C-1.88847656 6.22007812 -1.71445312 5.31515625 -1.53515625 4.3828125 C-1 2 -1 2 0 0 Z " fill="#F9FCF9" transform="translate(308,201)"/>
<path d="M0 0 C6.07901358 0.47439348 10.55594161 1.80558843 15.9375 4.625 C16.63552734 4.98400391 17.33355469 5.34300781 18.05273438 5.71289062 C23.52947871 8.60155485 28.39924231 11.8352012 33 16 C33.66 16.56847656 34.32 17.13695312 35 17.72265625 C43.77696373 25.79677718 51.18405071 37.6863815 55 49 C55 50.32 55 51.64 55 53 C51.37 53.99 47.74 54.98 44 56 C43.34 54.2675 42.68 52.535 42 50.75 C35.45175071 35.01187812 24.5941174 21.95462146 8.81640625 15.08984375 C5.24612776 13.62459945 1.63922042 12.28354247 -2 11 C-1.85892253 9.54119891 -1.71197585 8.08296449 -1.5625 6.625 C-1.48128906 5.81289062 -1.40007812 5.00078125 -1.31640625 4.1640625 C-1 2 -1 2 0 0 Z " fill="#F9FCF9" transform="translate(302,247)"/>
<path d="M0 0 C0.66 0.33 1.32 0.66 2 1 C-5.59 8.59 -13.18 16.18 -21 24 C-21 19.87532888 -18.81803239 18.21429075 -16.125 15.375 C-15.38866333 14.58464355 -15.38866333 14.58464355 -14.63745117 13.77832031 C-10.01867417 8.88654496 -5.10370758 4.38409588 0 0 Z " fill="#DAF2D7" transform="translate(187,147)"/>
</svg>
